<svg width="103" height="248" version="1.1" xmlns="http://www.w3.org/2000/svg" desc="Created with imagetracer.js version 1.2.6" ><path fill="rgb(248,184,39)" stroke="rgb(248,184,39)" stroke-width="1" opacity="1" d="M 44.5 11 L 52 14 Q 50.9 16.7 53.5 16 L 64 23 Q 62.9 25.7 65.5 25 L 70 28 Q 68.9 30.7 71.5 30 Q 85.1 40.9 93 57.5 L 91 56.5 L 87.5 50 L 83.5 51 L 78 48 Q 79.3 51 75.5 50 L 74.5 51 L 60.5 51 Q 53.5 50 50.5 45 Q 43.7 46.8 42 43.5 Q 42.8 41.3 40.5 42 L 32.5 37 L 31.5 40 Q 28 38 32.5 36 L 41 28.5 Q 44.9 24.4 44 15.5 L 43 12.5 L 44.5 11 Z " /><path fill="rgb(248,184,39)" stroke="rgb(248,184,39)" stroke-width="1" opacity="1" d="M 28.5 39 L 27.5 41 L 28.5 39 Z " /><path fill="rgb(248,184,39)" stroke="rgb(248,184,39)" stroke-width="1" opacity="1" d="M 22.5 43 L 24 43.5 L 21.5 45 L 22.5 43 Z " /><path fill="rgb(248,184,39)" stroke="rgb(248,184,39)" stroke-width="1" opacity="1" d="M 18.5 46 L 16.5 49 L 18.5 46 Z " /><path fill="rgb(248,184,39)" stroke="rgb(248,184,39)" stroke-width="1" opacity="1" d="M 94.5 61 L 96 64.5 L 95 64.5 L 94.5 61 Z " /><path fill="rgb(248,184,39)" stroke="rgb(248,184,39)" stroke-width="1" opacity="1" d="M 45.5 67 L 48 67.5 L 45.5 68 L 45.5 67 Z " /><path fill="rgb(248,184,39)" stroke="rgb(248,184,39)" stroke-width="1" opacity="1" d="M 59.5 68 L 63 69.5 L 61.5 70 L 59.5 68 Z " /><path fill="rgb(248,184,39)" stroke="rgb(248,184,39)" stroke-width="1" opacity="1" d="M 67.5 72 L 68.5 74 L 67.5 72 Z " /><path fill="rgb(248,184,39)" stroke="rgb(248,184,39)" stroke-width="1" opacity="1" d="M 72.5 76 L 73.5 78 L 72.5 76 Z " /><path fill="rgb(237,237,238)" stroke="rgb(237,237,238)" stroke-width="1" opacity="1" d="M 0 0 L 31.5 0 L 32.5 1 L 36 0 Q 35 3 38 2 Q 36.7 -1.3 41.5 0 L 43.5 0 L 47.5 1 L 48.5 0 L 103 0 L 103 45.5 L 102 46.5 L 103 47.5 L 103 65.5 L 101.5 65 Q 97.3 66.3 99 61.5 L 96 58.5 Q 96.2 53.3 93 51.5 L 93 46.5 L 90.5 42 L 88 43 L 87.5 41 L 85 42 L 84 37 L 82 36.5 L 83 34 L 80.5 35 L 78.5 32 Q 81.1 32.8 80 29.5 L 79 29.5 L 78.5 31 Q 79.1 26.4 76.5 25 L 74 25.5 L 77 27.5 L 76.5 29 L 76 27 L 72 26 L 71.5 23 L 70.5 25 L 68 19 Q 65 20 66 17 L 70 14.5 Q 68.4 9 62 10 Q 61.3 13.4 64 14.5 L 63.5 17 L 61 16.5 L 61.5 15 L 56.5 16 Q 53.7 14.8 56 13.5 L 55.5 11 L 55 13 Q 52.3 14.1 53 11.5 L 49 8.5 L 47.5 6 L 44.5 8 L 42.5 7 L 40 7.5 L 39 14.5 L 41 19.5 L 40 19.5 L 39.5 17 L 39 20 Q 36.3 18.9 37 21.5 Q 40.8 23.3 37.5 25 L 35.5 24 L 32.5 28 L 31 28.5 L 33 29.5 L 32 32.5 L 32.5 34 L 28 35 Q 29.7 30.9 25.5 32 L 23.5 32 Q 20.9 31.3 22 34 L 27 35 L 25.5 38 L 20 41 Q 22.1 35.8 17.5 37 L 15.5 40 L 14 39.5 L 14.5 42 L 16.5 42 L 18 41.5 L 17.5 40 Q 20.5 41.5 17.5 43 Q 11.4 41.8 12 44.5 L 7.5 50 L 8 48.5 Q 9.3 44.8 5.5 46 L 2 50.5 Q 4.5 52 1 53.5 Q 0.3 55.8 2.5 55 L 4.5 56 L 6 55.5 L 5 58 Q 2 57 3 60 L 0 60 L 1 55.5 L 0 53.5 L 1 50.5 L 1 48.5 Q -1.3 45.3 0 38.5 L 0 36.5 L 0 27.5 L 3 27 L 3 23 L 0 22.5 L 0 0 Z M 49 2 L 47 4 L 49 6 L 49 4 L 52 4 L 49 2 Z M 32 4 L 32 7 L 34 8 Q 35 3 32 4 Z M 51 7 L 51 8 L 54 8 L 51 7 Z M 33 12 Q 30 17 35 16 L 34 15 L 36 15 L 36 14 L 33 12 Z M 8 16 L 9 21 L 10 19 Q 11 15 8 16 Z M 33 17 L 32 20 L 35 22 L 33 17 Z M 17 24 L 16 32 L 17 32 L 17 24 Z M 9 26 L 8 30 L 4 32 L 6 34 Q 10 35 8 31 L 13 30 L 9 28 L 9 26 Z M 16 34 L 16 36 L 19 36 L 16 34 Z M 91 37 L 91 40 L 93 39 Q 94 36 91 37 Z M 100 48 L 99 51 L 102 53 Q 103 49 100 48 Z " /><path fill="rgb(237,237,238)" stroke="rgb(237,237,238)" stroke-width="1" opacity="1" d="M 35 27 Q 38 26 37 29 L 34.5 30 L 35 28.5 L 35 27 Z " /><path fill="rgb(237,237,238)" stroke="rgb(237,237,238)" stroke-width="1" opacity="1" d="M 5.5 48 L 5 49.5 L 6 51.5 L 4 50.5 L 5.5 48 Z " /><path fill="rgb(237,237,238)" stroke="rgb(237,237,238)" stroke-width="1" opacity="1" d="M 101 67 Q 104 65.8 103 69.5 L 102 71.5 L 103 75.5 L 101.5 78 L 101 75.5 L 102 72.5 L 101 67 Z " /><path fill="rgb(237,237,238)" stroke="rgb(237,237,238)" stroke-width="1" opacity="1" d="M 45.5 70 L 47 70.5 L 43.5 73 L 45.5 70 Z " /><path fill="rgb(237,237,238)" stroke="rgb(237,237,238)" stroke-width="1" opacity="1" d="M 48.5 70 L 52 70.5 L 48.5 71 L 48.5 70 Z " /><path fill="rgb(237,237,238)" stroke="rgb(237,237,238)" stroke-width="1" opacity="1" d="M 58.5 71 L 59.5 73 L 58.5 71 Z " /><path fill="rgb(237,237,238)" stroke="rgb(237,237,238)" stroke-width="1" opacity="1" d="M 61.5 72 L 64 73.5 L 61 74 L 61.5 72 Z " /><path fill="rgb(237,237,238)" stroke="rgb(237,237,238)" stroke-width="1" opacity="1" d="M 65.5 74 L 67.5 77 L 65.5 74 Z " /><path fill="rgb(237,237,238)" stroke="rgb(237,237,238)" stroke-width="1" opacity="1" d="M 33.5 77 L 32.5 79 L 33.5 77 Z " /><path fill="rgb(237,237,238)" stroke="rgb(237,237,238)" stroke-width="1" opacity="1" d="M 72.5 80 L 74 82.5 L 72 81.5 L 72.5 80 Z " /><path fill="rgb(237,237,238)" stroke="rgb(237,237,238)" stroke-width="1" opacity="1" d="M 102.5 80 L 103 83.5 L 102 83.5 L 102.5 80 Z " /><path fill="rgb(237,237,238)" stroke="rgb(237,237,238)" stroke-width="1" opacity="1" d="M 26.5 85 L 25.5 87 L 26.5 85 Z " /><path fill="rgb(237,237,238)" stroke="rgb(237,237,238)" stroke-width="1" opacity="1" d="M 75.5 88 L 76.5 90 Q 73.7 90.7 75.5 88 Z " /><path fill="rgb(237,237,238)" stroke="rgb(237,237,238)" stroke-width="1" opacity="1" d="M 102.5 91 L 103 93 L 101 92.5 L 102.5 91 Z " /><path fill="rgb(237,237,238)" stroke="rgb(237,237,238)" stroke-width="1" opacity="1" d="M 101 95 L 103 95.5 L 103 106.5 L 101 107.5 Q 102.5 103.1 99.5 104 L 99.5 103 L 101.5 104 L 102 101.5 L 100 101.5 L 101 95 Z " /><path fill="rgb(237,237,238)" stroke="rgb(237,237,238)" stroke-width="1" opacity="1" d="M 77.5 96 L 79 103.5 L 77 102.5 L 78 100.5 L 77.5 96 Z " /><path fill="rgb(237,237,238)" stroke="rgb(237,237,238)" stroke-width="1" opacity="1" d="M 78.5 106 L 79 108.5 L 78 108.5 L 78.5 106 Z " /><path fill="rgb(237,237,238)" stroke="rgb(237,237,238)" stroke-width="1" opacity="1" d="M 98.5 106 L 98 107.5 Q 96.1 112.9 99.5 112 L 101.5 112 L 103 112.5 L 103 154 L 100 153.5 L 100 144.5 L 100 142.5 L 99 139.5 L 99.5 138 L 96 136.5 L 96.5 135 Q 94.3 134.3 95 136.5 L 92 135.5 L 94 138.5 L 92 139.5 L 91.5 137 L 90 138.5 L 88.5 146 L 87.5 142 L 86.5 144 L 86 141.5 L 87.5 139 L 88.5 141 L 89 138.5 L 87 130.5 L 87.5 129 Q 85.3 129.8 86 127.5 L 85.5 126 Q 86.8 128.3 88 125.5 L 91.5 117 L 93 117.5 Q 91.9 114.2 94.5 115 L 96 115.5 L 95 111.5 L 98.5 106 Z M 96 117 L 95 118 Q 92 117 93 120 L 96 120 Q 102 122 101 118 L 97 119 L 96 117 Z M 90 125 L 88 127 L 91 130 L 92 130 L 92 126 L 90 125 Z M 94 126 L 94 131 L 96 131 L 96 126 L 94 126 Z " /><path fill="rgb(237,237,238)" stroke="rgb(237,237,238)" stroke-width="1" opacity="1" d="M 1.5 114 L 4 117.5 L 1 115.5 L 1.5 114 Z " /><path fill="rgb(237,237,238)" stroke="rgb(237,237,238)" stroke-width="1" opacity="1" d="M 0.5 117 L 1 120 L 3.5 119 L 6 120.5 L 5 118.5 Q 6.5 115.5 8 118.5 L 9 121.5 L 4 122.5 Q 7 123.5 6 128.5 L 5 130.5 L 8.5 132 L 10 128.5 L 8.5 126 L 10 126.5 L 10.5 125 L 12.5 128 L 13 125 Q 16.3 123.9 15 128 L 17.5 128 L 22 129 L 23.5 126 L 23 127.5 L 22.5 133 L 21.5 131 L 18.5 136 L 17.5 133 L 16.5 136 L 15 129 L 12 130.5 L 9 135.5 L 9.5 137 L 0 138 L 1 129.5 L 0 128.5 L 0.5 117 Z " /><path fill="rgb(237,237,238)" stroke="rgb(237,237,238)" stroke-width="1" opacity="1" d="M 77.5 120 L 79 128 Q 86.1 125.6 84 132 Q 78.4 129.8 80 135.5 L 79 135.5 L 79 128.5 Q 75.6 126 77.5 120 Z " /><path fill="rgb(237,237,238)" stroke="rgb(237,237,238)" stroke-width="1" opacity="1" d="M 10.5 138 Q 14.7 136.7 13 141.5 Q 11.5 144.5 10 141.5 L 10.5 140 L 9 140 L 9 144 L 5 144 L 5 145.5 L 4 145.5 Q 4.9 142.5 0.5 144 L 0.5 143 L 8 143 L 8 140 L 0 139.5 L 9.5 139 L 10.5 138 Z " /><path fill="rgb(237,237,238)" stroke="rgb(237,237,238)" stroke-width="1" opacity="1" d="M 16.5 138 Q 19.2 139.3 17 140.5 L 18 143.5 L 17.5 145 L 19 145 L 19 140 L 20.5 140 L 22 140.5 L 22.5 138 L 24 141.5 L 22 141.5 L 24 147.5 L 22 146.5 Q 23 142.8 20 144 Q 21.3 147 17.5 146 L 15.5 146 L 14 145.5 L 16 144.5 L 14 139.5 L 16.5 138 Z " /><path fill="rgb(237,237,238)" stroke="rgb(237,237,238)" stroke-width="1" opacity="1" d="M 95.5 138 L 96 140.5 L 95 140.5 L 95.5 138 Z " /><path fill="rgb(237,237,238)" stroke="rgb(237,237,238)" stroke-width="1" opacity="1" d="M 77 139 L 79 139.5 L 78 142.5 L 80 143.5 L 80.5 141 L 81 143.5 L 79.5 146 L 79 144 L 77 144 L 77 139 Z " /><path fill="rgb(237,237,238)" stroke="rgb(237,237,238)" stroke-width="1" opacity="1" d="M 81.5 139 Q 84.8 140.8 85 145.5 L 84 145.5 Q 84.7 142.9 82 144 L 82 140.5 L 81.5 139 Z " /><path fill="rgb(237,237,238)" stroke="rgb(237,237,238)" stroke-width="1" opacity="1" d="M 91.5 143 L 92 145.5 L 92.5 147 L 96 144.5 L 95.5 149 L 93 147.5 L 92.5 149 L 90 144.5 L 91.5 143 Z " /><path fill="rgb(237,237,238)" stroke="rgb(237,237,238)" stroke-width="1" opacity="1" d="M 10 144 Q 12.7 142.9 12 145.5 L 10 146.5 L 10 144 Z " /><path fill="rgb(237,237,238)" stroke="rgb(237,237,238)" stroke-width="1" opacity="1" d="M 77.5 150 L 78 158.5 L 79 159.5 L 77 158.5 L 77.5 150 Z " /><path fill="rgb(237,237,238)" stroke="rgb(237,237,238)" stroke-width="1" opacity="1" d="M 94.5 150 L 96 151.5 Q 94.3 157.8 97 159.5 L 96 162.5 L 98 163.5 Q 96.9 160.2 99.5 161 L 99.5 159 L 103 159.5 L 103 187.5 L 101 187.5 L 101 189 L 103 189.5 L 103 199.5 Q 99.2 208.2 101 222.5 L 102 223.5 L 103 241 L 100 242.5 L 103 243 L 102.5 247 L 96 246 Q 97 249 94 248 L 93.5 245 L 93 248 Q 88.5 249.5 90 245 L 86 245 L 85.5 247 L 82.5 245 L 82 248 Q 78.3 249.5 79 246.5 L 80 245.5 L 80 238 L 78 237.5 L 80 236.5 L 77 235.5 L 81.5 232 L 84 232 L 78.5 221 L 76 222.5 L 79.5 217 L 81 216.5 L 75.5 216 L 77 218.5 L 75 220.5 L 73.5 223 L 72 217 L 64 216.5 L 71 216 L 69.5 211 L 68 211.5 L 69 205 L 67 204.5 L 68.5 204 L 71 205 Q 69.5 208.7 72.5 208 L 74 205 Q 71 206 72 203 L 74 203 Q 72.9 200.3 75.5 201 L 80.5 195 L 84 192.5 L 85.5 190 L 87 192.5 L 84 193 L 84 199.5 L 85.5 200 L 88 198.5 Q 85.5 200 89 201.5 L 90 219 L 92 218.5 L 92 209.5 L 91.5 208 Q 94.5 208.9 93 204.5 L 94.5 202 Q 87.8 204.3 90 197.5 L 88.5 195 L 85 197 L 85.5 195 Q 86.8 197.3 88 194.5 Q 86.9 191.2 89.5 192 L 88.5 190 Q 86.3 190.8 87 188.5 Q 90.5 186.8 89 181 Q 91.7 182.1 91 179.5 L 92 179.5 L 94.5 184 L 96.5 184 L 98.5 185 L 101 179.5 L 100 176 Q 103 177.3 102 173.5 L 100 173.5 Q 99.3 170.9 102 172 L 102 169.5 L 100 169.5 Q 100.9 166.5 96.5 168 Q 94.3 168.8 95 172.5 L 96 175.5 L 93 177.5 L 95 173 Q 92 174.3 93 170.5 Q 90.8 169.3 93.5 168 L 95 168.5 L 94 164.5 L 95 161.5 L 94 158.5 L 95 151.5 L 94.5 150 Z M 92 181 Q 89 186 93 185 L 92 181 Z M 94 185 L 95 188 L 96 186 L 96 188 L 97 188 Q 98 183 94 185 Z M 97 190 L 97 195 L 100 194 Q 102 188 97 190 Z M 94 191 Q 93 195 96 194 Q 97 190 94 191 Z M 93 194 L 91 196 L 93 198 L 95 198 L 93 194 Z M 81 196 L 81 198 Q 80 201 83 200 Q 85 195 81 196 Z M 97 196 Q 97 203 94 207 Q 93 210 97 208 L 97 196 Z M 80 199 L 78 202 Q 77 204 80 203 L 80 199 Z M 100 199 L 98 201 L 98 231 L 100 232 L 100 199 Z M 74 203 L 74 205 L 77 206 L 78 208 L 80 207 L 78 203 L 74 203 Z M 86 206 L 83 210 L 83 223 L 85 224 L 87 223 L 88 208 L 86 206 Z M 73 210 L 73 211 L 80 211 L 73 210 Z M 72 212 L 72 215 L 80 215 L 80 212 L 72 212 Z M 73 217 Q 72 221 75 220 Q 76 216 73 217 Z M 97 222 L 96 232 L 97 232 L 97 222 Z M 91 223 L 90 224 Q 86 223 88 229 L 90 228 Q 89 225 92 226 Q 93 222 91 223 Z " /><path fill="rgb(237,237,238)" stroke="rgb(237,237,238)" stroke-width="1" opacity="1" d="M 100.5 155 L 103 155.5 L 100.5 156 L 100.5 155 Z " /><path fill="rgb(237,237,238)" stroke="rgb(237,237,238)" stroke-width="1" opacity="1" d="M 78.5 161 L 79 163.5 L 78 163.5 L 78.5 161 Z " /><path fill="rgb(237,237,238)" stroke="rgb(237,237,238)" stroke-width="1" opacity="1" d="M 77.5 166 L 78 168.5 L 77 168.5 L 77.5 166 Z " /><path fill="rgb(237,237,238)" stroke="rgb(237,237,238)" stroke-width="1" opacity="1" d="M 76.5 173 L 77 174.5 L 75 175.5 L 76.5 173 Z " /><path fill="rgb(237,237,238)" stroke="rgb(237,237,238)" stroke-width="1" opacity="1" d="M 9.5 179 L 11 182.5 L 10 182.5 L 9.5 181 L 8 181.5 L 9.5 179 Z " /><path fill="rgb(237,237,238)" stroke="rgb(237,237,238)" stroke-width="1" opacity="1" d="M 10.5 186 L 12 189 Q 15 188 14 191 L 10 189 L 9.5 192 L 8 189 L 11 187.5 L 10.5 186 Z " /><path fill="rgb(237,237,238)" stroke="rgb(237,237,238)" stroke-width="1" opacity="1" d="M 32.5 186 L 33.5 188 L 32.5 186 Z " /><path fill="rgb(237,237,238)" stroke="rgb(237,237,238)" stroke-width="1" opacity="1" d="M 65.5 189 L 64.5 191 L 65.5 189 Z " /><path fill="rgb(237,237,238)" stroke="rgb(237,237,238)" stroke-width="1" opacity="1" d="M 18.5 192 L 21 195.5 L 18.5 194 L 17 193.5 L 18.5 192 Z " /><path fill="rgb(237,237,238)" stroke="rgb(237,237,238)" stroke-width="1" opacity="1" d="M 24.5 200 L 28 202.5 L 24 205 L 26 201 L 24.5 200 Z " /><path fill="rgb(237,237,238)" stroke="rgb(237,237,238)" stroke-width="1" opacity="1" d="M 33.5 204 L 38 206.5 L 35.5 207 L 33.5 204 Z " /><path fill="rgb(237,237,238)" stroke="rgb(237,237,238)" stroke-width="1" opacity="1" d="M 64.5 205 L 66.5 208 L 64.5 207 L 63.5 209 L 63 207.5 L 64.5 205 Z " /><path fill="rgb(237,237,238)" stroke="rgb(237,237,238)" stroke-width="1" opacity="1" d="M 28.5 206 Q 34.2 204.2 32 210.5 L 30 211.5 Q 32.3 210.2 29.5 209 L 27 207.5 L 28.5 206 Z " /><path fill="rgb(237,237,238)" stroke="rgb(237,237,238)" stroke-width="1" opacity="1" d="M 60.5 206 L 60 207.5 L 60 215.5 L 62 216 L 63.5 210 L 64 211.5 L 62 220 L 60 220.5 L 62 221.5 L 59.5 223 L 58 219.5 L 59 207.5 L 60.5 206 Z " /><path fill="rgb(237,237,238)" stroke="rgb(237,237,238)" stroke-width="1" opacity="1" d="M 42.5 207 L 44 210.5 L 43 214.5 L 43 216.5 L 42.5 222 L 42.5 207 Z " /><path fill="rgb(237,237,238)" stroke="rgb(237,237,238)" stroke-width="1" opacity="1" d="M 34.5 209 L 39.5 212 L 41 211.5 L 40 212.5 L 40 220 L 36 220 Q 37.3 214.7 34 215.5 L 34 211.5 Q 31.7 210.2 34.5 209 Z " /><path fill="rgb(237,237,238)" stroke="rgb(237,237,238)" stroke-width="1" opacity="1" d="M 30.5 218 L 31 220.5 L 28 222.5 L 27.5 221 L 27 223 L 25 223 L 23 219 L 27 221 L 27.5 219 L 28 221 Q 31.1 222.1 30.5 218 Z " /><path fill="rgb(237,237,238)" stroke="rgb(237,237,238)" stroke-width="1" opacity="1" d="M 65 218 L 67 218.5 L 65 219.5 L 65 218 Z " /><path fill="rgb(237,237,238)" stroke="rgb(237,237,238)" stroke-width="1" opacity="1" d="M 7.5 220 L 10 221.5 L 7.5 223 L 7.5 220 Z " /><path fill="rgb(237,237,238)" stroke="rgb(237,237,238)" stroke-width="1" opacity="1" d="M 16.5 220 L 17 224.5 L 16 224.5 Q 17.1 221.2 14.5 222 L 14.5 221 L 16.5 220 Z " /><path fill="rgb(237,237,238)" stroke="rgb(237,237,238)" stroke-width="1" opacity="1" d="M 19.5 221 L 24 222 Q 25.3 225 21.5 224 L 19.5 221 Z " /><path fill="rgb(237,237,238)" stroke="rgb(237,237,238)" stroke-width="1" opacity="1" d="M 34.5 221 L 40 221.5 L 34.5 222 L 34.5 221 Z " /><path fill="rgb(237,237,238)" stroke="rgb(237,237,238)" stroke-width="1" opacity="1" d="M 18.5 225 L 19 232.5 Q 16.8 233.7 18 238.5 L 20 239.5 Q 18.5 232.5 21.5 233 L 23 232.5 L 25 236.5 L 24 238.5 L 27 240 L 27 236 L 28.5 236 L 28 237.5 L 28.5 240 L 39.5 240 L 41.5 241 L 42.5 239 L 30.5 239 L 30 237.5 L 32 236.5 L 32.5 238 L 46.5 238 L 47 239.5 L 49.5 243 L 58.5 243 L 59 241 L 53 240.5 L 65 239.5 L 64.5 238 Q 69.3 236.3 68 240.5 L 68.5 243 L 71.5 243 L 76 247.5 L 74.5 247 L 72.5 248 Q 70 244.8 64 246 L 63.5 248 L 63 245 L 61 245 L 60.5 248 L 48 248 L 48 246 L 43 246 L 42.5 248 L 9.5 248 L 7.5 246 Q 2.1 246.6 0 245 Q -1.1 242.3 1.5 243 L 3.5 243 L 10 241.5 L 0 240 Q -1.5 235.5 3 237 L 3 240 L 8 240 Q 6.5 236.2 9.5 237 L 9.5 236 L 8 235.5 L 17 235 L 18 228.5 L 18 226.5 L 18.5 225 Z M 16 236 L 16 240 L 17 240 Q 18 235 16 236 Z M 23 236 L 21 239 L 23 240 L 23 236 Z M 11 241 L 15 246 L 15 244 L 11 241 Z M 45 242 L 45 243 L 48 243 L 45 242 Z " /><path fill="rgb(237,237,238)" stroke="rgb(237,237,238)" stroke-width="1" opacity="1" d="M 55.5 236 L 64 236.5 L 55.5 237 L 55.5 236 Z " /><path fill="rgb(237,237,238)" stroke="rgb(237,237,238)" stroke-width="1" opacity="1" d="M 74.5 236 Q 76.8 235.3 76 237.5 L 75.5 240 Q 73.3 240.8 74 238.5 L 74.5 236 Z " /><path fill="rgb(237,237,238)" stroke="rgb(237,237,238)" stroke-width="1" opacity="1" d="M 54.5 238 L 62 238.5 L 54.5 239 L 54.5 238 Z " /><path fill="rgb(243,112,41)" stroke="rgb(243,112,41)" stroke-width="1" opacity="1" d="M 20 49 Q 22.7 47.9 22 50.5 L 16 54.5 L 20 55 Q 19.2 60 22.5 62 L 31.5 66 L 32.5 63 L 36.5 64 L 38 63.5 Q 38.8 65.8 36.5 65 L 35.5 67 L 38 68.5 L 31 72.5 Q 31.8 74.8 29.5 74 L 21.5 84 Q 18.5 83.2 20 87 L 17 87 L 17 89.5 L 15.5 92 L 13 88.5 L 11.5 81 L 9.5 84 Q 6.5 84.9 8 80.5 L 7 80.5 Q 8.3 87.3 5.5 90 L 4 87.5 L 6 83.5 L 4 73.5 L 5 71.5 L 4 69.5 Q 6.6 68.1 6 63.5 L 12.5 56 L 14 56.5 L 13 54.5 Q 15.1 50.9 20 51 L 20 49 Z M 32 68 Q 31 71 34 70 Q 35 67 32 68 Z M 17 81 L 16 86 L 17 86 L 17 81 Z " /><path fill="rgb(243,112,41)" stroke="rgb(243,112,41)" stroke-width="1" opacity="1" d="M 40.5 64 L 44 66.5 L 40.5 67 Q 37.5 65.5 40.5 64 Z " /><path fill="rgb(243,112,41)" stroke="rgb(243,112,41)" stroke-width="1" opacity="1" d="M 90.5 66 L 93 70 Q 97.5 68.3 96 73.5 L 97 74.5 L 97 85.5 L 98 87.5 Q 96.8 95.3 92.5 100 L 90.5 98 L 88 99.5 L 87.5 95 L 84.5 100 L 83 92.5 L 81 90.5 L 81 85.5 L 72.5 73 L 71.5 75 L 69.5 72 L 71.5 73 L 72 71 L 75 71.5 L 75 73.5 L 77 76.5 L 79.5 75 L 81 76.5 L 81.5 79 L 82 76 L 86 75 L 86 72 L 91 72 L 91 68.5 L 90.5 66 Z " /><path fill="rgb(243,112,41)" stroke="rgb(243,112,41)" stroke-width="1" opacity="1" d="M 18.5 88 L 19 91.5 L 18 91.5 L 18.5 88 Z " /><path fill="rgb(243,112,41)" stroke="rgb(243,112,41)" stroke-width="1" opacity="1" d="M 88.5 103 L 90 106.5 L 88 107.5 L 89 105.5 L 88.5 103 Z " /><path fill="rgb(249,146,40)" stroke="rgb(249,146,40)" stroke-width="1" opacity="1" d="M 32.5 37 L 35.5 40 L 38.5 40 L 42 42 L 43.5 45 L 50.5 45 Q 53.5 50 60.5 51 L 74.5 51 L 78 50 Q 76.9 47.3 79.5 48 L 85.5 51 L 87.5 50 Q 96 60.5 99 76.5 L 98 76.5 Q 95 74 95.5 68 L 95 70 Q 92.3 71.1 93 68.5 L 90 66.5 L 91 72 L 86 72 Q 87.5 75.8 84.5 75 L 82 76 L 81.5 79 L 79.5 75 L 77 76.5 L 75 73.5 L 74.5 71 Q 71.2 69.9 72 72.5 L 74 76.5 L 72.5 76 L 60.5 68 Q 55 65.5 45.5 67 L 35.5 72 L 35 70 L 40 68.5 L 35 66.5 L 38 65 L 37.5 63 L 33.5 64 L 32 63.5 Q 30.9 66.8 33.5 66 L 33.5 67 L 21 60.5 L 20 55 L 16 54.5 L 22 50.5 Q 22.7 47.9 20 49 Q 21.1 51.7 18.5 51 L 15.5 52 Q 13.7 49.2 12 53.5 L 14 56.5 L 11 54.5 L 15.5 49 L 24 44 Q 22.9 41.3 25.5 42 L 32.5 37 Z M 41 64 Q 38 66 41 67 L 44 67 L 41 64 Z M 70 72 L 72 75 L 72 74 L 70 72 Z " /><path fill="rgb(249,146,40)" stroke="rgb(249,146,40)" stroke-width="1" opacity="1" d="M 9.5 56 L 8.5 58 L 9.5 56 Z " /><path fill="rgb(249,146,40)" stroke="rgb(249,146,40)" stroke-width="1" opacity="1" d="M 32 68 Q 35 67 34 70 Q 31 71 32 68 Z " /><path fill="rgb(249,146,40)" stroke="rgb(249,146,40)" stroke-width="1" opacity="1" d="M 33.5 72 L 27.5 79 L 33.5 72 Z " /><path fill="rgb(249,146,40)" stroke="rgb(249,146,40)" stroke-width="1" opacity="1" d="M 74.5 78 L 75.5 80 L 74.5 78 Z " /><path fill="rgb(249,146,40)" stroke="rgb(249,146,40)" stroke-width="1" opacity="1" d="M 25.5 81 L 24.5 83 L 25.5 81 Z " /><path fill="rgb(249,146,40)" stroke="rgb(249,146,40)" stroke-width="1" opacity="1" d="M 76.5 81 L 77.5 83 L 76.5 81 Z " /><path fill="rgb(249,146,40)" stroke="rgb(249,146,40)" stroke-width="1" opacity="1" d="M 23.5 84 L 24 85.5 L 22 86.5 L 23.5 84 Z " /><path fill="rgb(249,146,40)" stroke="rgb(249,146,40)" stroke-width="1" opacity="1" d="M 81.5 97 L 82 103.5 L 81 103.5 L 81.5 97 Z " /><path fill="rgb(249,146,40)" stroke="rgb(249,146,40)" stroke-width="1" opacity="1" d="M 81.5 107 L 82 111.5 L 81 111.5 L 81.5 107 Z " /><path fill="rgb(249,146,40)" stroke="rgb(249,146,40)" stroke-width="1" opacity="1" d="M 12.5 119 L 14.5 122 L 12.5 119 Z " /><path fill="rgb(10,104,174)" stroke="rgb(10,104,174)" stroke-width="1" opacity="1" d="M 59.5 76 L 62 77.5 L 60.5 78 L 59.5 76 Z " /><path fill="rgb(10,104,174)" stroke="rgb(10,104,174)" stroke-width="1" opacity="1" d="M 63.5 78 L 64.5 80 L 63.5 78 Z " /><path fill="rgb(10,104,174)" stroke="rgb(10,104,174)" stroke-width="1" opacity="1" d="M 35.5 80 L 35 81.5 Q 35.8 84.1 32.5 83 L 32.5 82 L 35.5 80 Z " /><path fill="rgb(10,104,174)" stroke="rgb(10,104,174)" stroke-width="1" opacity="1" d="M 31.5 84 L 32 86.5 L 31 88.5 L 33.5 93 L 40.5 91 L 44.5 93 L 47.5 91 L 51.5 93 L 53.5 93 Q 62.3 93.4 66 90 Q 64.3 94.1 68.5 93 L 71 92 Q 72.3 86.1 68 84.5 L 70.5 86 Q 73.9 85.1 72 90.5 L 73.5 98 L 74.5 95 L 75 98.5 L 73 109.5 L 74 113.5 Q 71.8 114.8 73 119.5 L 73.5 121 L 71.5 120 L 67.5 128 L 64.5 126 L 63.5 127 L 49.5 127 L 46.5 126 L 40 127 L 37.5 123 L 35 124.5 L 33.5 129 L 33 127 L 31 126.5 L 31 116.5 L 30 116.5 L 30 138.5 L 29 141.5 L 30 144.5 L 29 144.5 Q 26.3 138.3 28 127.5 L 29 126.5 L 29 116.5 L 28 115.5 L 27.5 98 L 26.5 101 L 26 97 L 28 97 L 28 91.5 L 30 91 L 30 89.5 L 29 87 L 31 86.5 Q 28.7 85.2 31.5 84 Z M 31 91 L 30 97 L 32 98 L 31 91 Z " /><path fill="rgb(6,127,197)" stroke="rgb(6,127,197)" stroke-width="1" opacity="1" d="M 47.5 74 L 49.5 74 L 57.5 75 L 60.5 78 L 67 80 L 69.5 86 L 71 85.5 L 71 87.5 Q 72.9 92.9 69.5 92 L 66 93 Q 67.5 89.2 64.5 90 L 62.5 92 L 53.5 93 L 51.5 93 L 46.5 91 L 42.5 93 Q 41 89.5 39.5 92 L 33.5 93 L 31 87.5 L 33.5 83 Q 35.8 83.8 35 81.5 L 38 80 L 38 78 L 41 78 Q 39.9 75.3 42.5 76 L 47.5 74 Z " /><path fill="rgb(6,127,197)" stroke="rgb(6,127,197)" stroke-width="1" opacity="1" d="M 28.5 89 Q 30.8 88.3 30 90.5 L 32 97.5 L 30 96.5 Q 30.8 90.3 28.5 89 Z " /><path fill="rgb(214,89,53)" stroke="rgb(214,89,53)" stroke-width="1" opacity="1" d="M 14.5 51 L 15 52.5 L 6 63.5 L 4 70.5 L 5 72.5 L 4 77.5 L 6 85.5 L 4 88.5 L 6 89.5 L 7.5 80 L 8 84 L 11 82.5 L 11.5 81 L 13 88.5 L 15.5 92 L 17 87 Q 21.1 88.7 20 84.5 L 19 84.5 L 18.5 86 L 18 84.5 Q 19.2 81.7 20.5 84 L 23 82.5 L 29.5 74 Q 31.8 74.8 31 72.5 L 34.5 70 L 35 72 L 27 78.5 L 22 85.5 L 20 95.5 L 19.5 126 L 15 122.5 L 3 104.5 L 0 93.5 L 0 79.5 L 3 67.5 L 10 55 Q 12.7 56.1 12 53.5 L 14.5 51 Z M 19 88 L 18 92 L 19 92 L 19 88 Z " /><path fill="rgb(214,89,53)" stroke="rgb(214,89,53)" stroke-width="1" opacity="1" d="M 38.5 68 L 40 68.5 L 36.5 70 L 36.5 69 L 38.5 68 Z " /><path fill="rgb(214,89,53)" stroke="rgb(214,89,53)" stroke-width="1" opacity="1" d="M 97.5 75 L 99 77.5 L 99 91.5 Q 95.3 112.8 82.5 125 L 81 120.5 L 82 118.5 L 81 116.5 L 82 114.5 L 81 112.5 L 82 111.5 L 82 96.5 L 80 87.5 L 74 76.5 L 76 77.5 L 81 85.5 L 81 90.5 L 83 92.5 L 84.5 100 L 87.5 95 L 88.5 100 L 90.5 98 Q 92.3 101.7 94 98.5 L 98 86.5 L 97 85.5 L 97.5 75 Z M 89 103 L 89 106 L 88 108 L 90 107 L 89 103 Z " /><path fill="rgb(214,89,53)" stroke="rgb(214,89,53)" stroke-width="1" opacity="1" d="M 16.5 81 L 17 85.5 L 16 85.5 L 16.5 81 Z " /><path fill="rgb(250,217,183)" stroke="rgb(250,217,183)" stroke-width="1" opacity="1" d="M 42.5 8 L 45.5 8 Q 47.4 11.6 52.5 12 L 56.5 16 L 67 22 L 71.5 28 Q 72.8 25.8 74 28.5 L 75 32 Q 77.7 30.9 77 33.5 L 84 39.5 Q 83.5 43.5 86.5 44 Q 89.1 43.2 88 46.5 L 92 51.5 Q 93.3 59.7 98 64.5 L 100 71.5 L 101 88.5 L 98 102.5 L 86.5 125 L 85.5 124 L 82 126.5 Q 90.7 117.2 96 104.5 L 99 92.5 L 99 75.5 L 96 63.5 L 90 51.5 L 71.5 30 L 68.5 28 L 64 25 Q 65.1 22.3 62.5 23 L 52 16 Q 53.3 13 49.5 14 L 44.5 11 L 43 14.5 Q 45.5 16 44 21.5 Q 41.2 31.3 33.5 36 Q 19.6 43.1 10 54.5 L 3 66.5 L 0.5 76 L 0 69.5 Q 4.8 66.7 4 60 Q 6.7 61.1 6 58.5 L 10 51 L 13 49.5 Q 12.3 47.3 14.5 48 L 19 45 Q 17.9 42.3 20.5 43 L 27 39 L 28.5 36 L 35 33 L 35 31 Q 37.7 32.1 37 29.5 L 41 23.5 L 41 9.5 L 42.5 8 Z " /><path fill="rgb(250,217,183)" stroke="rgb(250,217,183)" stroke-width="1" opacity="1" d="M 48.5 67 L 55.5 67 L 63.5 70 L 76 80.5 L 80 88.5 L 82 106.5 L 81 107.5 L 80.5 124 L 80 95.5 Q 78.1 86 74 80 L 72 80 L 72 77 L 69 77 Q 70.1 74.3 67.5 75 L 64.5 72 L 57.5 69 L 45.5 69 L 38.5 73 L 36.5 73 L 30 77.5 L 29.5 80 L 28 79.5 L 28 82 Q 25.3 80.9 26 83.5 L 22 92.5 L 21 121.5 L 22 123.5 L 21 127 L 18.5 127 L 11 120.5 L 1 102.5 L 0 95.5 L 1 95.5 Q 2.3 105.7 7 112.5 L 18.5 126 L 20 125.5 L 20 96.5 L 24 83.5 L 33.5 73 L 40.5 69 L 48.5 67 Z " /><path fill="rgb(239,241,245)" stroke="rgb(239,241,245)" stroke-width="1" opacity="1" d="M 36 0 Q 39 -1 38 2 Q 35 3 36 0 Z " /><path fill="rgb(239,241,245)" stroke="rgb(239,241,245)" stroke-width="1" opacity="1" d="M 48.5 2 L 52 3.5 L 48.5 5 Q 45.5 3.5 48.5 2 Z " /><path fill="rgb(239,241,245)" stroke="rgb(239,241,245)" stroke-width="1" opacity="1" d="M 32 4 Q 35.3 2.7 34 7.5 L 32.5 10 L 32 8.5 L 32 6.5 L 32 4 Z " /><path fill="rgb(239,241,245)" stroke="rgb(239,241,245)" stroke-width="1" opacity="1" d="M 62 10 Q 68.4 9 70 14.5 L 65.5 18 L 62 12.5 L 62 10 Z " /><path fill="rgb(239,241,245)" stroke="rgb(239,241,245)" stroke-width="1" opacity="1" d="M 32 13 Q 35.3 11.9 34 16 Q 30.7 17.1 32 13 Z " /><path fill="rgb(239,241,245)" stroke="rgb(239,241,245)" stroke-width="1" opacity="1" d="M 32.5 17 L 34 20.5 L 32 19.5 L 32.5 17 Z " /><path fill="rgb(239,241,245)" stroke="rgb(239,241,245)" stroke-width="1" opacity="1" d="M 0 23 Q 3 21.8 2 25.5 L 0 26.5 L 0 23 Z " /><path fill="rgb(239,241,245)" stroke="rgb(239,241,245)" stroke-width="1" opacity="1" d="M 33.5 27 L 34 30.5 L 32 31.5 L 33 29.5 L 31 28.5 L 33.5 27 Z " /><path fill="rgb(239,241,245)" stroke="rgb(239,241,245)" stroke-width="1" opacity="1" d="M 8.5 28 L 11 29.5 L 8 30 L 8.5 28 Z " /><path fill="rgb(239,241,245)" stroke="rgb(239,241,245)" stroke-width="1" opacity="1" d="M 16 34 L 19 35.5 L 16 36 L 16 34 Z " /><path fill="rgb(239,241,245)" stroke="rgb(239,241,245)" stroke-width="1" opacity="1" d="M 14.5 39 Q 17.5 40.5 14.5 42 L 14.5 39 Z " /><path fill="rgb(239,241,245)" stroke="rgb(239,241,245)" stroke-width="1" opacity="1" d="M 90.5 42 L 93 48.5 L 90 46.5 L 89 43.5 L 90.5 42 Z " /><path fill="rgb(239,241,245)" stroke="rgb(239,241,245)" stroke-width="1" opacity="1" d="M 5.5 46 Q 9.3 44.8 8 48.5 L 9.5 48 L 11 48.5 L 9 49 L 8.5 51 L 7.5 49 L 6.5 51 L 6 48 L 4 47.5 L 5.5 46 Z " /><path fill="rgb(239,241,245)" stroke="rgb(239,241,245)" stroke-width="1" opacity="1" d="M 0.5 50 L 1.5 53 L 4 51.5 Q 3.3 53.8 5.5 53 L 5 54.5 Q 5.8 56.8 3.5 56 L 1 55 L 0.5 58 L 0 55.5 L 1 53.5 L 0.5 50 Z " /><path fill="rgb(239,241,245)" stroke="rgb(239,241,245)" stroke-width="1" opacity="1" d="M 0.5 60 L 2 62.5 L 0 61.5 L 0.5 60 Z " /><path fill="rgb(239,241,245)" stroke="rgb(239,241,245)" stroke-width="1" opacity="1" d="M 100 65 Q 103 64 102 67 Q 99 68 100 65 Z " /><path fill="rgb(239,241,245)" stroke="rgb(239,241,245)" stroke-width="1" opacity="1" d="M 35.5 76 L 34.5 78 L 35.5 76 Z " /><path fill="rgb(239,241,245)" stroke="rgb(239,241,245)" stroke-width="1" opacity="1" d="M 25.5 88 L 26 90.5 L 25 90.5 L 25.5 88 Z " /><path fill="rgb(239,241,245)" stroke="rgb(239,241,245)" stroke-width="1" opacity="1" d="M 23.5 97 L 24 102.5 L 23 102.5 L 23.5 97 Z " /><path fill="rgb(239,241,245)" stroke="rgb(239,241,245)" stroke-width="1" opacity="1" d="M 101.5 101 L 102 103.5 Q 99.5 105 101 110.5 L 99.5 112 Q 96.1 112.9 98 107.5 L 99 104 L 101 103.5 Q 98.8 102.3 101.5 101 Z " /><path fill="rgb(239,241,245)" stroke="rgb(239,241,245)" stroke-width="1" opacity="1" d="M 77.5 103 L 78 119.5 L 77 119.5 L 77.5 103 Z " /><path fill="rgb(239,241,245)" stroke="rgb(239,241,245)" stroke-width="1" opacity="1" d="M 23.5 104 L 25 114.5 L 23.5 119 L 23.5 104 Z " /><path fill="rgb(239,241,245)" stroke="rgb(239,241,245)" stroke-width="1" opacity="1" d="M 1.5 106 L 2 107.5 L 2 109.5 L 4 115 Q 0.7 116.3 2 111.5 L 0 111.5 L 1.5 106 Z " /><path fill="rgb(239,241,245)" stroke="rgb(239,241,245)" stroke-width="1" opacity="1" d="M 0.5 115 L 3 118.5 L 1 119.5 L 0.5 115 Z " /><path fill="rgb(239,241,245)" stroke="rgb(239,241,245)" stroke-width="1" opacity="1" d="M 5.5 117 L 6 119.5 L 5.5 121 L 4 118.5 L 5.5 117 Z " /><path fill="rgb(239,241,245)" stroke="rgb(239,241,245)" stroke-width="1" opacity="1" d="M 23.5 123 L 24 125.5 L 23 125.5 L 23.5 123 Z " /><path fill="rgb(239,241,245)" stroke="rgb(239,241,245)" stroke-width="1" opacity="1" d="M 89.5 125 L 92 126 L 92 130 L 90.5 130 L 88 126.5 L 89.5 125 Z " /><path fill="rgb(239,241,245)" stroke="rgb(239,241,245)" stroke-width="1" opacity="1" d="M 86.5 126 L 86 127.5 Q 85.3 129.8 87.5 129 L 87 130.5 L 89 139.5 L 87 139.5 L 86 144 Q 83 145.3 84 141.5 Q 82.8 138.8 81.5 141 L 79.5 142 L 78.5 138 L 77 138.5 L 78 135.5 L 77 132.5 L 78.5 128 L 79.5 136 L 81.5 135 L 83 135.5 L 84 127 L 86.5 126 Z " /><path fill="rgb(239,241,245)" stroke="rgb(239,241,245)" stroke-width="1" opacity="1" d="M 23 127 L 25 127.5 L 25 143.5 L 23 147.5 L 24 149.5 L 22 150.5 L 22 148 Q 19 149.3 20 145.5 L 23 146.5 L 24 139.5 L 22 138.5 L 21.5 141 L 19 140 L 19 145 L 17.5 145 L 18 141.5 L 18 137.5 L 21.5 131 L 22.5 133 L 23 127 Z " /><path fill="rgb(239,241,245)" stroke="rgb(239,241,245)" stroke-width="1" opacity="1" d="M 94 128 Q 97.3 126.9 96 131 Q 92.7 132.1 94 128 Z " /><path fill="rgb(239,241,245)" stroke="rgb(239,241,245)" stroke-width="1" opacity="1" d="M 13.5 129 Q 15.8 128.3 15 130.5 L 16 131.5 L 16 139 L 13.5 140 L 13 138 L 8 139 Q 6.9 136.3 9.5 137 L 9 135.5 L 13.5 129 Z " /><path fill="rgb(239,241,245)" stroke="rgb(239,241,245)" stroke-width="1" opacity="1" d="M 95 135 L 97 135.5 Q 94.8 136.7 97.5 138 L 100 138.5 L 98.5 140 L 96 139.5 L 95.5 138 L 94.5 140 L 94 137.5 L 95 135 Z " /><path fill="rgb(239,241,245)" stroke="rgb(239,241,245)" stroke-width="1" opacity="1" d="M 91.5 137 L 92 138.5 L 90 139.5 L 91.5 137 Z " /><path fill="rgb(239,241,245)" stroke="rgb(239,241,245)" stroke-width="1" opacity="1" d="M 0 141 L 7.5 141 L 8 143 L 0.5 143 L 0 141 Z " /><path fill="rgb(239,241,245)" stroke="rgb(239,241,245)" stroke-width="1" opacity="1" d="M 10.5 143 L 16 144.5 L 10 148.5 L 8 158.5 L 10 165.5 L 10 171.5 L 10 173.5 L 13.5 187 Q 14.8 184.8 16 187.5 L 19 191.5 L 16.5 192 Q 18.2 190 14.5 188 L 11 186.5 Q 12.2 179.8 9 177.5 L 9.5 176 L 8 175.5 L 8 173.5 L 7 162.5 Q 9.3 161.3 6.5 160 Q 4.3 160.8 5 158.5 L 7 154.5 L 5 150 Q 0.9 148.3 2 152.5 L 0 153.5 L 0.5 146 L 4 148 L 5 144 Q 7.7 142.9 7 145.5 L 9 145.5 L 8.5 147 L 12 145.5 Q 12.8 143.3 10.5 144 L 10.5 143 Z " /><path fill="rgb(239,241,245)" stroke="rgb(239,241,245)" stroke-width="1" opacity="1" d="M 81.5 143 L 83 145.5 Q 77.5 147 79 155.5 L 80 156.5 L 80 164.5 L 80 166.5 L 79 168.5 L 80 170.5 L 78 170.5 L 79 174.5 L 77 175 L 76.5 173 L 75 173.5 L 78 158.5 L 78 150.5 L 77 144 L 79 144 Q 77.9 146.7 80.5 146 L 81.5 143 Z M 79 159 L 78 164 L 79 164 L 79 159 Z M 78 166 L 77 169 L 78 169 L 78 166 Z " /><path fill="rgb(239,241,245)" stroke="rgb(239,241,245)" stroke-width="1" opacity="1" d="M 87.5 143 L 88.5 146 L 89.5 144 L 90 145.5 L 86.5 147 Q 83.9 147.7 85 145 Q 87.8 146 87.5 143 Z " /><path fill="rgb(239,241,245)" stroke="rgb(239,241,245)" stroke-width="1" opacity="1" d="M 93.5 147 L 95.5 150 L 94 150.5 L 94 158.5 L 94.5 160 Q 91.5 159.1 93 163.5 L 94.5 166 L 95.5 164 L 96 165.5 L 95 168.5 L 97 168.5 Q 96.3 170.8 98.5 170 L 102 169.5 L 102 172 Q 99.3 170.9 100 173.5 L 102 173.5 L 102 176 Q 99 174.8 100 178.5 L 101 180.5 L 98.5 185 L 97 183.5 L 97 177.5 L 94.5 169 L 93 172.5 L 93 174.5 L 92.5 179 L 91 176.5 Q 93.3 175.2 92 170.5 L 94 168.5 L 92 165.5 L 92 152.5 L 93.5 147 Z " /><path fill="rgb(239,241,245)" stroke="rgb(239,241,245)" stroke-width="1" opacity="1" d="M 76.5 155 L 77 157.5 L 76 157.5 L 76.5 155 Z " /><path fill="rgb(239,241,245)" stroke="rgb(239,241,245)" stroke-width="1" opacity="1" d="M 0.5 158 L 3 161.5 L 0.5 166 L 0.5 158 Z " /><path fill="rgb(239,241,245)" stroke="rgb(239,241,245)" stroke-width="1" opacity="1" d="M 24.5 164 L 25 166.5 Q 21.5 168 24 169.5 L 23.5 171 L 22 168.5 L 24.5 164 Z " /><path fill="rgb(239,241,245)" stroke="rgb(239,241,245)" stroke-width="1" opacity="1" d="M 3 170 L 6 171.5 L 7 173.5 L 4.5 179 Q 1.4 177.6 2 172.5 L 3 170 Z " /><path fill="rgb(239,241,245)" stroke="rgb(239,241,245)" stroke-width="1" opacity="1" d="M 25.5 171 L 25 172.5 L 23.5 176 L 24 174.5 L 25.5 171 Z " /><path fill="rgb(239,241,245)" stroke="rgb(239,241,245)" stroke-width="1" opacity="1" d="M 74.5 175 L 75.5 177 L 74.5 175 Z " /><path fill="rgb(239,241,245)" stroke="rgb(239,241,245)" stroke-width="1" opacity="1" d="M 24.5 177 L 27 177.5 Q 24.3 179.3 28.5 181 L 30 180.5 L 31.5 185 L 32.5 184 L 35.5 187 Q 37.8 186.3 37 188.5 L 34.5 187 L 33 187.5 L 34.5 190 L 32 189 L 33 186.5 L 31.5 186 Q 29.7 188.7 28 184.5 Q 30.3 183.3 27.5 182 L 26 181.5 L 26.5 180 Q 24.3 180.8 25 178.5 L 24.5 177 Z " /><path fill="rgb(239,241,245)" stroke="rgb(239,241,245)" stroke-width="1" opacity="1" d="M 90.5 178 L 91 180.5 L 90 180.5 L 90.5 178 Z " /><path fill="rgb(239,241,245)" stroke="rgb(239,241,245)" stroke-width="1" opacity="1" d="M 72 180 L 74 180.5 L 72 181.5 L 72 180 Z " /><path fill="rgb(239,241,245)" stroke="rgb(239,241,245)" stroke-width="1" opacity="1" d="M 9.5 182 L 8.5 184 L 9.5 182 Z " /><path fill="rgb(239,241,245)" stroke="rgb(239,241,245)" stroke-width="1" opacity="1" d="M 70.5 183 L 72.5 184 L 74 183.5 L 70 185 L 70.5 183 Z " /><path fill="rgb(239,241,245)" stroke="rgb(239,241,245)" stroke-width="1" opacity="1" d="M 87.5 184 Q 90.1 183.2 89 186.5 L 88 186.5 L 87.5 184 Z " /><path fill="rgb(239,241,245)" stroke="rgb(239,241,245)" stroke-width="1" opacity="1" d="M 68.5 185 L 67.5 187 L 68.5 185 Z " /><path fill="rgb(239,241,245)" stroke="rgb(239,241,245)" stroke-width="1" opacity="1" d="M 94 185 Q 98.1 183.3 97 187.5 Q 95.5 190.5 94 187.5 L 94 185 Z " /><path fill="rgb(239,241,245)" stroke="rgb(239,241,245)" stroke-width="1" opacity="1" d="M 9.5 186 L 10 189 Q 12.7 187.9 12 190.5 L 10 194.5 L 10.5 196 L 5 192 L 6.5 188 L 9.5 186 Z M 8 189 L 8 191 L 10 192 Q 11 188 8 189 Z " /><path fill="rgb(239,241,245)" stroke="rgb(239,241,245)" stroke-width="1" opacity="1" d="M 64.5 188 L 64 189.5 Q 64.7 192.1 62 191 Q 60.9 188.3 63.5 189 L 64.5 188 Z " /><path fill="rgb(239,241,245)" stroke="rgb(239,241,245)" stroke-width="1" opacity="1" d="M 85.5 188 L 87 191.5 L 86 191.5 L 85.5 188 Z " /><path fill="rgb(239,241,245)" stroke="rgb(239,241,245)" stroke-width="1" opacity="1" d="M 57.5 191 L 60 191.5 L 57 192.5 L 60 193.5 L 54.5 194 L 52 192.5 L 57.5 191 Z " /><path fill="rgb(239,241,245)" stroke="rgb(239,241,245)" stroke-width="1" opacity="1" d="M 98.5 191 L 99 195 Q 96 196.3 97 192.5 L 98.5 191 Z " /><path fill="rgb(239,241,245)" stroke="rgb(239,241,245)" stroke-width="1" opacity="1" d="M 45.5 192 L 47.5 193 L 50 192 L 50 194 L 45 194 L 45.5 192 Z " /><path fill="rgb(239,241,245)" stroke="rgb(239,241,245)" stroke-width="1" opacity="1" d="M 82.5 192 L 85 193.5 L 84.5 195 L 83.5 193 L 80.5 195 L 82.5 192 Z " /><path fill="rgb(239,241,245)" stroke="rgb(239,241,245)" stroke-width="1" opacity="1" d="M 0 193 Q 4.1 191.3 3 195.5 L 4 196.5 L 4 206.5 L 3 207.5 L 3 226.5 L 5 232.5 L 3 237 L 0 236.5 L 0 193 Z " /><path fill="rgb(239,241,245)" stroke="rgb(239,241,245)" stroke-width="1" opacity="1" d="M 19.5 193 L 22 194.5 L 20.5 194 L 19 194.5 L 22.5 197 Q 23.7 194.8 25 197.5 Q 23.7 200.3 22.5 198 L 17 196 Q 15.9 193.3 18.5 194 L 19.5 193 Z " /><path fill="rgb(239,241,245)" stroke="rgb(239,241,245)" stroke-width="1" opacity="1" d="M 92.5 194 L 95 197.5 L 92.5 198 L 91 195.5 L 92.5 194 Z " /><path fill="rgb(239,241,245)" stroke="rgb(239,241,245)" stroke-width="1" opacity="1" d="M 78.5 196 L 80.5 196 L 82 196.5 L 79.5 198 L 78.5 196 Z " /><path fill="rgb(239,241,245)" stroke="rgb(239,241,245)" stroke-width="1" opacity="1" d="M 96.5 196 L 97 208 Q 93.2 209.5 94 206.5 Q 97.4 203.4 96.5 196 Z " /><path fill="rgb(239,241,245)" stroke="rgb(239,241,245)" stroke-width="1" opacity="1" d="M 13.5 198 L 17 198.5 L 16 203 L 12 201.5 L 13.5 198 Z " /><path fill="rgb(239,241,245)" stroke="rgb(239,241,245)" stroke-width="1" opacity="1" d="M 76.5 198 L 77 199.5 L 74 201 Q 75.3 204.3 70.5 203 L 70.5 205 L 66.5 207 L 64 205.5 L 65 211 L 68.5 212 L 70 211.5 L 71 216 L 64 216.5 L 71.5 217 L 73 216.5 L 72 219.5 L 73 219.5 Q 72.3 216.9 75 218 L 75.5 220 L 77 219.5 L 77.5 222 L 80 220.5 L 79 223.5 L 84 232 L 81.5 232 L 77 235 L 76.5 237 L 76 235.5 L 80 233 L 79 228.5 L 79 226.5 L 76.5 222 L 74 223.5 L 75 220 L 73 220 L 72.5 223 L 61.5 223 L 62 219.5 Q 62.8 215.3 60 214.5 L 60 208.5 L 61 206.5 L 59 207.5 Q 60.2 215.2 57.5 219 L 57 213.5 L 59 205 L 66.5 204 L 68.5 205 L 68.5 203 Q 71.1 203.7 70 201 L 73.5 201 L 76.5 198 Z M 63 212 L 62 216 L 63 216 L 63 212 Z M 65 218 L 65 220 L 67 219 L 65 218 Z " /><path fill="rgb(239,241,245)" stroke="rgb(239,241,245)" stroke-width="1" opacity="1" d="M 25.5 199 Q 29.3 197.8 28 201.5 L 30.5 202 L 33 203.5 L 34 206.5 L 33 208.5 L 34 211.5 L 34 216.5 L 32 217 L 32 218.5 L 33.5 220 L 40 220 L 40.5 216 L 42.5 222 L 44 215.5 L 43 211.5 L 44 211.5 L 45 221.5 L 43.5 223 Q 35.3 221.9 32 224 L 31.5 222 L 29.5 223 L 29.5 221 Q 27.3 220.3 28 222.5 L 27 222.5 Q 27.7 219.9 25 221 L 24.5 224 L 24 222 L 21 220.5 L 22.5 220 L 25 221 Q 23.5 217.3 26.5 218 L 27.5 221 L 28 218 Q 31 216.8 30 220.5 L 31 220.5 L 30 216.5 L 31 214 L 27 214 L 27 215.5 L 27.5 217 Q 24.9 217.8 26 214.5 L 20 210.5 Q 19.3 208.3 21.5 209 Q 22.8 206.8 27.5 208 L 31.5 211 L 32 205 L 30 204.5 L 32 203.5 Q 27.8 203.8 26.5 201 L 26 203 Q 23 204 24 201 L 26 200.5 L 25.5 199 Z M 35 221 L 35 222 L 40 222 L 35 221 Z " /><path fill="rgb(239,241,245)" stroke="rgb(239,241,245)" stroke-width="1" opacity="1" d="M 99.5 199 L 100 231.5 L 98 230.5 L 98 200.5 L 99.5 199 Z " /><path fill="rgb(239,241,245)" stroke="rgb(239,241,245)" stroke-width="1" opacity="1" d="M 102.5 200 L 103 231.5 L 102 231.5 L 101 206.5 L 102.5 200 Z " /><path fill="rgb(239,241,245)" stroke="rgb(239,241,245)" stroke-width="1" opacity="1" d="M 34.5 203 L 42 205 L 41.5 208 L 41 206 Q 34.6 207.3 34.5 203 Z " /><path fill="rgb(239,241,245)" stroke="rgb(239,241,245)" stroke-width="1" opacity="1" d="M 11.5 204 L 12 207 L 9 208.5 L 10 209.5 L 10 218.5 L 9 218.5 L 8 216.5 L 8 207 L 11 205.5 L 11.5 204 Z " /><path fill="rgb(239,241,245)" stroke="rgb(239,241,245)" stroke-width="1" opacity="1" d="M 76.5 204 L 80 205.5 L 77 207 L 76.5 204 Z " /><path fill="rgb(239,241,245)" stroke="rgb(239,241,245)" stroke-width="1" opacity="1" d="M 17.5 205 L 19 208 Q 15.3 209.5 16 206.5 L 17.5 205 Z " /><path fill="rgb(239,241,245)" stroke="rgb(239,241,245)" stroke-width="1" opacity="1" d="M 85.5 206 L 88 207.5 L 87 223 L 84.5 224 L 83 222.5 L 83 209.5 L 85.5 206 Z " /><path fill="rgb(239,241,245)" stroke="rgb(239,241,245)" stroke-width="1" opacity="1" d="M 15.5 209 L 16 212.5 L 15 212.5 L 15.5 209 Z " /><path fill="rgb(239,241,245)" stroke="rgb(239,241,245)" stroke-width="1" opacity="1" d="M 72.5 210 L 76 210.5 L 72.5 211 L 72.5 210 Z " /><path fill="rgb(239,241,245)" stroke="rgb(239,241,245)" stroke-width="1" opacity="1" d="M 72 212 L 79.5 212 L 80 213.5 L 78.5 215 L 72 215 L 72 212 Z " /><path fill="rgb(239,241,245)" stroke="rgb(239,241,245)" stroke-width="1" opacity="1" d="M 9.5 223 L 13.5 224 L 16 223 L 16.5 225 L 20 223 L 20.5 227 L 22.5 224 L 23 226.5 L 22 233 Q 18.5 231.9 20 239.5 L 18 238.5 L 19 225.5 L 18 225.5 L 17 227.5 Q 19.2 228.8 16.5 230 L 15 229.5 L 12 235 L 9 233.5 L 8 229.5 L 9.5 223 Z " /><path fill="rgb(239,241,245)" stroke="rgb(239,241,245)" stroke-width="1" opacity="1" d="M 96.5 223 L 97 231.5 L 96 231.5 L 96.5 223 Z " /><path fill="rgb(239,241,245)" stroke="rgb(239,241,245)" stroke-width="1" opacity="1" d="M 24.5 234 L 25 236 L 27.5 235 L 48.5 235 L 48.5 236 L 31.5 236 L 29.5 237 L 27 236 L 25.5 240 L 24.5 234 Z " /><path fill="rgb(239,241,245)" stroke="rgb(239,241,245)" stroke-width="1" opacity="1" d="M 52.5 235 L 64.5 235 L 66.5 236 L 69.5 235 L 74 236 L 73.5 238 Q 72.3 235.8 67.5 237 L 64 238.5 L 64.5 240 L 57 239.5 L 64 238 L 63.5 236 L 52.5 236 L 52.5 235 Z " /><path fill="rgb(239,241,245)" stroke="rgb(239,241,245)" stroke-width="1" opacity="1" d="M 33.5 239 L 43 239.5 L 33.5 240 L 33.5 239 Z " /><path fill="rgb(239,241,245)" stroke="rgb(239,241,245)" stroke-width="1" opacity="1" d="M 0 240 L 10 241.5 L 2.5 244 L 0 243 L 0 240 Z " /><path fill="rgb(239,241,245)" stroke="rgb(239,241,245)" stroke-width="1" opacity="1" d="M 11 241 L 15 243.5 L 14.5 246 L 11 241 Z " /><path fill="rgb(239,241,245)" stroke="rgb(239,241,245)" stroke-width="1" opacity="1" d="M 79.5 243 L 80 245.5 L 78.5 248 L 78 246.5 L 79.5 243 Z " /><path fill="rgb(239,241,245)" stroke="rgb(239,241,245)" stroke-width="1" opacity="1" d="M 45.5 246 Q 49.3 245 48 248 L 44 247.5 L 45.5 246 Z " /><path fill="rgb(239,241,245)" stroke="rgb(239,241,245)" stroke-width="1" opacity="1" d="M 68.5 246 Q 71.1 245.3 70 248 L 66 247.5 L 68.5 246 Z " /><path fill="rgb(239,241,245)" stroke="rgb(239,241,245)" stroke-width="1" opacity="1" d="M 96.5 247 L 101 247.5 L 96.5 248 L 96.5 247 Z " /><path fill="rgb(127,155,186)" stroke="rgb(127,155,186)" stroke-width="1" opacity="1" d="M 43.5 74 L 46 74.5 Q 37.6 76.6 32.5 82 L 33.5 80 L 43.5 74 Z " /><path fill="rgb(127,155,186)" stroke="rgb(127,155,186)" stroke-width="1" opacity="1" d="M 56.5 74 L 60 75.5 L 58.5 76 L 56.5 74 Z " /><path fill="rgb(127,155,186)" stroke="rgb(127,155,186)" stroke-width="1" opacity="1" d="M 61.5 76 L 71 83.5 L 72 85.5 L 70 84.5 L 65.5 79 Q 61.5 78.5 61.5 76 Z " /><path fill="rgb(127,155,186)" stroke="rgb(127,155,186)" stroke-width="1" opacity="1" d="M 31.5 83 L 30 85.5 L 28.5 89 L 28 87.5 L 31.5 83 Z " /><path fill="rgb(127,155,186)" stroke="rgb(127,155,186)" stroke-width="1" opacity="1" d="M 72.5 87 Q 75.5 89 75 94.5 L 74 94.5 L 72.5 87 Z " /><path fill="rgb(127,155,186)" stroke="rgb(127,155,186)" stroke-width="1" opacity="1" d="M 26.5 93 L 27 96.5 L 26 96.5 L 26.5 93 Z " /><path fill="rgb(127,155,186)" stroke="rgb(127,155,186)" stroke-width="1" opacity="1" d="M 75.5 96 L 76 127.5 L 75 127.5 L 75.5 96 Z " /><path fill="rgb(127,155,186)" stroke="rgb(127,155,186)" stroke-width="1" opacity="1" d="M 81.5 123 L 82.5 125 L 84 124.5 L 81 126.5 L 81.5 123 Z " /><path fill="rgb(127,155,186)" stroke="rgb(127,155,186)" stroke-width="1" opacity="1" d="M 17.5 124 L 18.5 126 L 17.5 124 Z " /><path fill="rgb(127,155,186)" stroke="rgb(127,155,186)" stroke-width="1" opacity="1" d="M 11 148 L 19.5 148 L 21 149.5 L 20.5 171 L 20 149 L 12.5 149 L 12 149.5 L 12 173.5 L 11 173.5 L 11 148 Z " /><path fill="rgb(127,155,186)" stroke="rgb(127,155,186)" stroke-width="1" opacity="1" d="M 81.5 148 L 84 148.5 L 81.5 149 L 81.5 148 Z " /><path fill="rgb(127,155,186)" stroke="rgb(127,155,186)" stroke-width="1" opacity="1" d="M 75.5 152 L 76 166.5 L 75 166.5 L 75.5 152 Z " /><path fill="rgb(127,155,186)" stroke="rgb(127,155,186)" stroke-width="1" opacity="1" d="M 26.5 167 L 27 169.5 L 26 169.5 L 26.5 167 Z " /><path fill="rgb(127,155,186)" stroke="rgb(127,155,186)" stroke-width="1" opacity="1" d="M 80.5 170 L 81 173.5 L 80 173.5 L 80.5 170 Z " /><path fill="rgb(127,155,186)" stroke="rgb(127,155,186)" stroke-width="1" opacity="1" d="M 74.5 171 L 75 173.5 L 74 173.5 L 74.5 171 Z " /><path fill="rgb(127,155,186)" stroke="rgb(127,155,186)" stroke-width="1" opacity="1" d="M 89.5 172 L 90 174.5 L 89 174.5 L 89.5 172 Z " /><path fill="rgb(127,155,186)" stroke="rgb(127,155,186)" stroke-width="1" opacity="1" d="M 29.5 178 L 30.5 180 L 29.5 178 Z " /><path fill="rgb(127,155,186)" stroke="rgb(127,155,186)" stroke-width="1" opacity="1" d="M 71.5 179 L 70 181.5 L 66.5 186 L 69 182.5 L 71.5 179 Z " /><path fill="rgb(127,155,186)" stroke="rgb(127,155,186)" stroke-width="1" opacity="1" d="M 77.5 180 L 77 181.5 L 71.5 189 L 73 186.5 L 77.5 180 Z " /><path fill="rgb(127,155,186)" stroke="rgb(127,155,186)" stroke-width="1" opacity="1" d="M 14.5 181 L 18 187.5 L 16 186.5 L 14.5 181 Z " /><path fill="rgb(127,155,186)" stroke="rgb(127,155,186)" stroke-width="1" opacity="1" d="M 25.5 183 L 35 191.5 L 33.5 191 L 25.5 183 Z " /><path fill="rgb(127,155,186)" stroke="rgb(127,155,186)" stroke-width="1" opacity="1" d="M 33.5 183 L 36.5 187 L 33.5 183 Z " /><path fill="rgb(127,155,186)" stroke="rgb(127,155,186)" stroke-width="1" opacity="1" d="M 85.5 185 L 84.5 187 L 85.5 185 Z " /><path fill="rgb(127,155,186)" stroke="rgb(127,155,186)" stroke-width="1" opacity="1" d="M 64.5 186 L 63.5 188 L 64.5 186 Z " /><path fill="rgb(127,155,186)" stroke="rgb(127,155,186)" stroke-width="1" opacity="1" d="M 83.5 188 L 82.5 190 L 83.5 188 Z " /><path fill="rgb(127,155,186)" stroke="rgb(127,155,186)" stroke-width="1" opacity="1" d="M 69.5 189 L 67.5 192 L 69.5 189 Z " /><path fill="rgb(127,155,186)" stroke="rgb(127,155,186)" stroke-width="1" opacity="1" d="M 19.5 190 L 26.5 198 L 19.5 190 Z " /><path fill="rgb(127,155,186)" stroke="rgb(127,155,186)" stroke-width="1" opacity="1" d="M 44.5 190 L 48 190.5 L 44.5 191 L 44.5 190 Z " /><path fill="rgb(127,155,186)" stroke="rgb(127,155,186)" stroke-width="1" opacity="1" d="M 53.5 190 L 57 190.5 L 53.5 191 L 53.5 190 Z " /><path fill="rgb(127,155,186)" stroke="rgb(127,155,186)" stroke-width="1" opacity="1" d="M 79.5 193 L 78.5 195 L 79.5 193 Z " /><path fill="rgb(127,155,186)" stroke="rgb(127,155,186)" stroke-width="1" opacity="1" d="M 54.5 195 L 58 195.5 L 54.5 196 L 54.5 195 Z " /><path fill="rgb(127,155,186)" stroke="rgb(127,155,186)" stroke-width="1" opacity="1" d="M 75.5 196 L 73.5 199 L 75.5 196 Z " /><path fill="rgb(127,155,186)" stroke="rgb(127,155,186)" stroke-width="1" opacity="1" d="M 30.5 199 L 31.5 201 L 30.5 199 Z " /><path fill="rgb(127,155,186)" stroke="rgb(127,155,186)" stroke-width="1" opacity="1" d="M 36.5 202 L 41 203.5 L 38.5 204 L 36.5 202 Z " /><path fill="rgb(127,155,186)" stroke="rgb(127,155,186)" stroke-width="1" opacity="1" d="M 42.5 204 L 46 205.5 L 44.5 205 Q 41.5 205.5 42.5 204 Z " /><path fill="rgb(127,155,186)" stroke="rgb(127,155,186)" stroke-width="1" opacity="1" d="M 56.5 204 L 60 204.5 L 56 205 L 56 224 L 76.5 224 Q 79.8 225.8 78 232.5 L 76.5 234 L 24.5 234 L 24.5 233 L 76.5 233 L 77 232.5 L 77 225 L 55 225 L 55 205.5 L 56.5 204 Z " /><path fill="rgb(127,155,186)" stroke="rgb(127,155,186)" stroke-width="1" opacity="1" d="M 46.5 216 L 47 223.5 L 45.5 225 L 25.5 225 L 24.5 226 L 25.5 224 L 46 224 L 46.5 216 Z " /><path fill="rgb(29,85,151)" stroke="rgb(29,85,151)" stroke-width="1" opacity="1" d="M 27.5 92 L 28 95.5 L 27 95.5 L 27.5 92 Z " /><path fill="rgb(29,85,151)" stroke="rgb(29,85,151)" stroke-width="1" opacity="1" d="M 26.5 102 L 27 111.5 L 26 111.5 L 26.5 102 Z " /><path fill="rgb(29,85,151)" stroke="rgb(29,85,151)" stroke-width="1" opacity="1" d="M 74.5 102 L 76 151.5 Q 72.3 153.3 74 160.5 L 75 161.5 L 75 170.5 L 74 170.5 L 73.5 163 L 73 169.5 L 68.5 179 L 65.5 180 L 64.5 178 L 63 181.5 L 64 183.5 L 61.5 182 L 60 183.5 L 62 184.5 L 57.5 186 L 57 184.5 L 58.5 182 Q 54.8 182.8 54 180.5 Q 52.9 177.2 55.5 178 L 56.5 176 Q 50.6 173.9 52 178.5 L 48 180 L 46.5 183 L 46 178.5 L 47.5 176 L 41.5 177 L 37.5 175 L 37.5 178 L 40 179.5 L 39.5 182 L 37.5 181 L 36 181.5 L 37 178 L 33 179 Q 34.1 176.3 31.5 177 Q 28.7 175.8 31 174.5 L 30.5 173 L 29 173.5 L 30 171.5 L 29 168 L 26 166.5 L 26.5 163 L 27.5 167 L 28 159.5 L 27 158.5 L 26 127.5 L 28 126.5 L 27 135.5 L 27 137.5 L 29 146.5 L 29.5 159 L 30.5 155 L 33.5 161 L 38 158.5 Q 37.4 153.4 40.5 152 L 63 153 L 64 149 Q 66.7 147.9 66 150.5 L 68.5 154 L 73 150.5 Q 71.5 145 74 143.5 L 74.5 102 Z M 75 147 L 74 151 L 75 151 L 75 147 Z M 64 160 Q 63 163 66 162 Q 67 159 64 160 Z M 32 165 L 30 167 L 32 167 L 32 165 Z M 69 174 L 68 176 L 67 178 L 69 177 L 69 174 Z " /><path fill="rgb(29,85,151)" stroke="rgb(29,85,151)" stroke-width="1" opacity="1" d="M 26.5 120 L 27 123.5 L 26 123.5 L 26.5 120 Z " /><path fill="rgb(29,85,151)" stroke="rgb(29,85,151)" stroke-width="1" opacity="1" d="M 31.5 149 L 32 151.5 L 30 152.5 L 31.5 149 Z " /><path fill="rgb(29,85,151)" stroke="rgb(29,85,151)" stroke-width="1" opacity="1" d="M 81.5 149 L 82.5 154 L 83.5 150 L 85.5 151 L 88 150 L 88 166.5 L 86.5 171 L 85.5 169 L 85 174.5 L 86 177 L 83.5 178 L 82 174.5 L 84 166.5 L 83 162.5 L 84 160.5 L 82.5 156 L 81.5 166 L 81.5 149 Z M 85 153 L 85 160 L 87 159 Q 89 152 85 153 Z " /><path fill="rgb(29,85,151)" stroke="rgb(29,85,151)" stroke-width="1" opacity="1" d="M 15.5 150 L 18 150.5 L 20 159.5 L 20 166.5 L 19 166.5 L 18.5 160 L 17 168.5 L 19 171.5 L 17 175 Q 11.8 176.8 14 169.5 L 13.5 168 L 15 168.5 L 15 166 Q 12.3 167.1 13 164.5 L 14 161.5 L 13 152.5 L 15.5 150 Z M 16 153 L 17 155 Q 18 152 16 153 Z " /><path fill="rgb(29,85,151)" stroke="rgb(29,85,151)" stroke-width="1" opacity="1" d="M 89.5 150 L 90 166.5 L 89 166.5 L 89.5 150 Z " /><path fill="rgb(29,85,151)" stroke="rgb(29,85,151)" stroke-width="1" opacity="1" d="M 81.5 168 L 82 170.5 L 81 170.5 L 81.5 168 Z " /><path fill="rgb(29,85,151)" stroke="rgb(29,85,151)" stroke-width="1" opacity="1" d="M 81.5 179 L 85 181.5 L 83.5 181 Q 81.3 180.3 82 182.5 L 81 184.5 L 81 186.5 Q 81.7 189.1 79 188 L 78 184.5 L 79 184.5 Q 78.3 186.8 80.5 186 L 80 184.5 L 79 182.5 L 81 182.5 L 81.5 179 Z " /><path fill="rgb(29,85,151)" stroke="rgb(29,85,151)" stroke-width="1" opacity="1" d="M 20.5 181 L 22 186.5 L 21 186.5 L 20.5 185 L 19 185.5 L 20 183.5 Q 17.8 182.2 20.5 181 Z " /><path fill="rgb(29,85,151)" stroke="rgb(29,85,151)" stroke-width="1" opacity="1" d="M 24.5 182 L 23.5 184 L 24.5 182 Z " /><path fill="rgb(29,85,151)" stroke="rgb(29,85,151)" stroke-width="1" opacity="1" d="M 48.5 183 L 50 183.5 L 47.5 185 L 39.5 186 L 39.5 185 L 48.5 183 Z " /><path fill="rgb(29,85,151)" stroke="rgb(29,85,151)" stroke-width="1" opacity="1" d="M 51.5 184 Q 55.3 183 54 186 L 51 186 Q 52.3 189 48.5 188 L 47 188.5 L 47.5 187 L 42.5 188 L 42.5 187 L 49.5 186 L 51.5 184 Z " /><path fill="rgb(29,85,151)" stroke="rgb(29,85,151)" stroke-width="1" opacity="1" d="M 66.5 184 L 65.5 186 L 66.5 184 Z " /><path fill="rgb(29,85,151)" stroke="rgb(29,85,151)" stroke-width="1" opacity="1" d="M 75.5 184 L 74.5 186 L 75.5 184 Z " /><path fill="rgb(29,85,151)" stroke="rgb(29,85,151)" stroke-width="1" opacity="1" d="M 23.5 187 L 24.5 189 Q 21.7 189.7 23.5 187 Z " /><path fill="rgb(29,85,151)" stroke="rgb(29,85,151)" stroke-width="1" opacity="1" d="M 54.5 187 L 57 187.5 L 54.5 188 L 54.5 187 Z " /><path fill="rgb(29,85,151)" stroke="rgb(29,85,151)" stroke-width="1" opacity="1" d="M 18.5 188 L 21 188.5 Q 18.9 191.8 18.5 188 Z " /><path fill="rgb(29,85,151)" stroke="rgb(29,85,151)" stroke-width="1" opacity="1" d="M 70.5 189 L 69.5 191 L 70.5 189 Z " /><path fill="rgb(29,85,151)" stroke="rgb(29,85,151)" stroke-width="1" opacity="1" d="M 22.5 190 L 23.5 192 L 22.5 190 Z " /><path fill="rgb(29,85,151)" stroke="rgb(29,85,151)" stroke-width="1" opacity="1" d="M 25.5 190 Q 30 192 26.5 194 L 26.5 192 Q 23.7 192.7 25.5 190 Z " /><path fill="rgb(29,85,151)" stroke="rgb(29,85,151)" stroke-width="1" opacity="1" d="M 48.5 190 L 53 190.5 L 48.5 191 L 48.5 190 Z " /><path fill="rgb(29,85,151)" stroke="rgb(29,85,151)" stroke-width="1" opacity="1" d="M 33.5 191 L 32.5 195 L 30.5 195 L 28.5 196 L 29.5 194 L 33.5 191 Z " /><path fill="rgb(29,85,151)" stroke="rgb(29,85,151)" stroke-width="1" opacity="1" d="M 71.5 194 L 74 194.5 L 71.5 195 L 71.5 194 Z " /><path fill="rgb(29,85,151)" stroke="rgb(29,85,151)" stroke-width="1" opacity="1" d="M 31.5 196 L 33.5 196 L 38 197.5 L 36.5 198 L 33.5 197 L 30 197.5 L 31.5 196 Z " /><path fill="rgb(29,85,151)" stroke="rgb(29,85,151)" stroke-width="1" opacity="1" d="M 39.5 196 L 42 197 Q 43 200 40 199 L 39.5 196 Z " /><path fill="rgb(29,85,151)" stroke="rgb(29,85,151)" stroke-width="1" opacity="1" d="M 48.5 196 L 53 196.5 L 48.5 197 L 48.5 196 Z " /><path fill="rgb(29,85,151)" stroke="rgb(29,85,151)" stroke-width="1" opacity="1" d="M 67.5 196 L 70 196.5 L 67.5 197 L 67.5 196 Z " /><path fill="rgb(29,85,151)" stroke="rgb(29,85,151)" stroke-width="1" opacity="1" d="M 63.5 197 L 65 199.5 L 63 200.5 L 64 198.5 L 62.5 199 L 58.5 200 L 58.5 199 L 63.5 197 Z " /><path fill="rgb(29,85,151)" stroke="rgb(29,85,151)" stroke-width="1" opacity="1" d="M 46.5 199 Q 48.8 198.3 48 200.5 L 46.5 199 Z " /><path fill="rgb(29,85,151)" stroke="rgb(29,85,151)" stroke-width="1" opacity="1" d="M 42.5 200 L 43.5 202 L 42.5 200 Z " /><path fill="rgb(29,85,151)" stroke="rgb(29,85,151)" stroke-width="1" opacity="1" d="M 49 200 Q 52 198.8 51 202.5 L 49.5 205 L 49 200 Z " /><path fill="rgb(29,85,151)" stroke="rgb(29,85,151)" stroke-width="1" opacity="1" d="M 53.5 200 L 54 203 Q 51.3 204.1 52 201.5 L 53.5 200 Z " /><path fill="rgb(29,85,151)" stroke="rgb(29,85,151)" stroke-width="1" opacity="1" d="M 45.5 204 L 47 205.5 L 47 215.5 L 46 215.5 L 46 205.5 L 45.5 204 Z " /><path fill="rgb(29,85,151)" stroke="rgb(29,85,151)" stroke-width="1" opacity="1" d="M 55.5 204 L 55 205.5 L 54.5 208 L 54 205.5 L 55.5 204 Z " /><path fill="rgb(29,85,151)" stroke="rgb(29,85,151)" stroke-width="1" opacity="1" d="M 54.5 222 L 56 225.5 L 54 224.5 L 54.5 222 Z " /><path fill="rgb(29,85,151)" stroke="rgb(29,85,151)" stroke-width="1" opacity="1" d="M 49.5 224 Q 52.3 225.4 51 230 L 49 230 L 49.5 224 Z " /><path fill="rgb(29,85,151)" stroke="rgb(29,85,151)" stroke-width="1" opacity="1" d="M 53.5 227 L 54 228.5 L 52 229.5 L 53.5 227 Z " /><path fill="rgb(29,85,151)" stroke="rgb(29,85,151)" stroke-width="1" opacity="1" d="M 31.5 228 L 31 229.5 L 30.5 231 L 30 229.5 L 31.5 228 Z " /><path fill="rgb(29,85,151)" stroke="rgb(29,85,151)" stroke-width="1" opacity="1" d="M 72.5 229 L 73 231.5 L 72 231.5 L 72.5 229 Z " /><path fill="rgb(17,91,160)" stroke="rgb(17,91,160)" stroke-width="1" opacity="1" d="M 68.5 82 L 70 84.5 L 68 83.5 L 68.5 82 Z " /><path fill="rgb(17,91,160)" stroke="rgb(17,91,160)" stroke-width="1" opacity="1" d="M 73.5 93 L 74 97.5 L 73 97.5 L 73.5 93 Z " /><path fill="rgb(17,91,160)" stroke="rgb(17,91,160)" stroke-width="1" opacity="1" d="M 27.5 98 L 29 126.5 L 27 125.5 L 27 102.5 L 26 101.5 L 27.5 98 Z " /><path fill="rgb(17,91,160)" stroke="rgb(17,91,160)" stroke-width="1" opacity="1" d="M 74.5 99 L 75 101.5 L 74 101.5 L 74.5 99 Z " /><path fill="rgb(17,91,160)" stroke="rgb(17,91,160)" stroke-width="1" opacity="1" d="M 73.5 114 L 74 119.5 L 74 121.5 L 74 143.5 Q 71.5 145 73 150.5 L 71.5 152 L 68.5 154 L 66 149 Q 63.3 147.9 64 150.5 L 63 153 L 40.5 152 L 36.5 160 L 33.5 161 L 30.5 155 L 29.5 159 L 28 142.5 L 30 138.5 L 30.5 116 L 31 127 Q 33.7 125.9 33 128.5 L 34 128.5 L 36.5 123 L 40 125.5 Q 39.4 128.3 45.5 127 L 48.5 126 L 49.5 127 L 63.5 127 L 65.5 126 Q 67.3 129.8 69 126.5 L 71.5 120 L 73 119.5 L 73.5 114 Z M 30 142 L 29 145 L 30 145 L 30 142 Z M 32 149 L 31 152 L 32 152 L 32 149 Z " /><path fill="rgb(17,91,160)" stroke="rgb(17,91,160)" stroke-width="1" opacity="1" d="M 75.5 128 L 76 135.5 L 75 135.5 L 75.5 128 Z " /><path fill="rgb(17,91,160)" stroke="rgb(17,91,160)" stroke-width="1" opacity="1" d="M 27.5 130 L 28 135.5 L 27 135.5 L 27.5 130 Z " /><path fill="rgb(17,91,160)" stroke="rgb(17,91,160)" stroke-width="1" opacity="1" d="M 15.5 153 Q 17.8 152.3 17 154.5 L 15.5 153 Z " /><path fill="rgb(17,91,160)" stroke="rgb(17,91,160)" stroke-width="1" opacity="1" d="M 85 153 Q 89 151.6 87 158.5 L 85 159.5 L 85 153 Z " /><path fill="rgb(17,91,160)" stroke="rgb(17,91,160)" stroke-width="1" opacity="1" d="M 64 160 Q 67 159 66 162 Q 63 163 64 160 Z " /><path fill="rgb(17,91,160)" stroke="rgb(17,91,160)" stroke-width="1" opacity="1" d="M 31.5 165 L 32 167 L 30 166.5 L 31.5 165 Z " /><path fill="rgb(32,71,130)" stroke="rgb(32,71,130)" stroke-width="1" opacity="1" d="M 26.5 112 L 27 119.5 L 26 119.5 L 26.5 112 Z " /><path fill="rgb(32,71,130)" stroke="rgb(32,71,130)" stroke-width="1" opacity="1" d="M 26.5 124 L 27 126.5 L 26 126.5 L 26.5 124 Z " /><path fill="rgb(32,71,130)" stroke="rgb(32,71,130)" stroke-width="1" opacity="1" d="M 26.5 141 L 28 166.5 L 27 166.5 L 26 162.5 L 26.5 141 Z " /><path fill="rgb(32,71,130)" stroke="rgb(32,71,130)" stroke-width="1" opacity="1" d="M 74.5 147 L 75 150.5 L 74 150.5 L 74.5 147 Z " /><path fill="rgb(32,71,130)" stroke="rgb(32,71,130)" stroke-width="1" opacity="1" d="M 12 149 L 20 149 L 20 158.5 L 19 158.5 Q 20.1 152.4 17.5 150 L 15.5 150 L 13 152.5 L 14 161.5 L 13 164.5 Q 12.3 167.1 15 166 L 15 168.5 Q 12.8 169.7 14 174.5 Q 15.5 177.5 17 174.5 L 19 170.5 L 17 167.5 L 18.5 160 Q 19.1 171.9 23 180.5 L 30 190 L 40.5 195 L 52.5 197 L 66.5 193 L 76 184.5 L 77 181 Q 80 182.3 79 178.5 L 82 170.5 L 82.5 156 L 84 161.5 L 83 165.5 L 84 167.5 L 82 176.5 Q 83.3 179.3 84.5 177 Q 86.8 177.8 86 175.5 L 84.5 176 L 83 175.5 L 85 175 L 85.5 169 L 86.5 171 L 88 166.5 L 88 150 L 84.5 151 L 83 150.5 L 82.5 154 L 82 149 L 90 149.5 L 89 150.5 L 89 166.5 L 90 170.5 L 87 182.5 L 82 191 L 80 191 L 80 193 L 78 193 Q 79.1 195.7 76.5 195 L 64.5 203 L 55.5 204 L 54 205.5 Q 56.6 211.4 55 221.5 L 54 224.5 Q 55.2 227.2 56.5 225 L 72.5 225 L 73.5 226 L 77 225 L 77 232.5 L 76.5 233 L 24.5 233 L 25 231.5 Q 23.5 224.5 26.5 225 L 28.5 225 L 47 225 L 47 205.5 L 45.5 204 L 41.5 204 L 32.5 201 L 20 190.5 L 12 174.5 L 12 149 Z M 18 175 L 17 178 L 18 178 L 18 175 Z M 82 179 L 82 183 L 82 181 L 84 181 L 82 179 Z M 21 181 L 19 183 L 21 187 L 22 187 L 21 181 Z M 79 186 Q 78 189 81 188 Q 82 185 79 186 Z M 24 187 Q 22 190 25 189 L 24 187 Z M 26 190 Q 24 193 27 192 L 26 190 Z M 72 194 L 72 195 L 74 195 L 72 194 Z M 34 196 L 34 197 L 36 197 L 34 196 Z M 68 196 L 68 197 L 70 197 L 68 196 Z M 40 197 Q 39 200 42 199 Q 43 196 40 197 Z M 61 198 L 59 199 L 59 200 L 63 199 L 61 198 Z M 47 199 L 48 201 Q 49 198 47 199 Z M 49 200 L 50 205 L 51 203 Q 52 199 49 200 Z M 54 200 L 52 202 Q 51 204 54 203 L 54 200 Z M 50 224 L 49 230 L 51 230 Q 52 225 50 224 Z M 54 227 L 52 230 L 54 229 L 54 227 Z M 73 229 L 72 232 L 73 232 L 73 229 Z " /><path fill="rgb(32,71,130)" stroke="rgb(32,71,130)" stroke-width="1" opacity="1" d="M 74.5 153 L 75 160.5 L 74 160.5 L 74.5 153 Z " /><path fill="rgb(32,71,130)" stroke="rgb(32,71,130)" stroke-width="1" opacity="1" d="M 73.5 163 L 74 173.5 L 67.5 184 Q 61.2 192.2 44.5 190 L 34 183.5 Q 34.8 181.3 32.5 182 Q 27.3 176.9 27 168 Q 30 166.8 29 170.5 L 31 174.5 Q 28.7 175.8 31.5 177 L 34.5 179 L 38 176.5 L 37.5 175 L 44.5 177 L 47.5 176 L 46 178.5 L 46.5 183 L 48 180 L 52 178.5 Q 50.6 173.9 56.5 176 L 59 177.5 L 57.5 178 L 55.5 178 Q 52.9 177.2 54 180.5 L 59 182.5 L 57 185.5 L 58.5 185 L 62 184.5 L 60 183.5 L 61.5 182 L 64 183.5 L 63 181.5 L 64.5 178 L 65.5 180 L 70 177.5 L 73 169.5 L 73.5 163 Z M 37 178 Q 36 182 40 183 L 40 182 L 40 180 L 37 178 Z M 44 184 L 44 185 L 48 185 L 44 184 Z M 52 184 L 50 186 L 43 187 L 43 188 L 46 187 L 49 188 Q 52 189 51 186 L 54 186 Q 55 183 52 184 Z M 40 185 L 40 186 L 43 186 L 40 185 Z M 55 187 L 55 188 L 57 188 L 55 187 Z " /><path fill="rgb(32,71,130)" stroke="rgb(32,71,130)" stroke-width="1" opacity="1" d="M 68.5 174 L 69 176.5 L 66.5 178 L 68 175.5 L 68.5 174 Z " /><path fill="rgb(32,71,130)" stroke="rgb(32,71,130)" stroke-width="1" opacity="1" d="M 65.5 175 L 64.5 177 L 65.5 175 Z " /><path fill="rgb(243,240,237)" stroke="rgb(243,240,237)" stroke-width="1" opacity="1" d="M 48.5 5 L 48 6.5 L 50.5 10 L 53 11.5 L 50.5 12 L 46 8.5 L 48.5 5 Z " /><path fill="rgb(243,240,237)" stroke="rgb(243,240,237)" stroke-width="1" opacity="1" d="M 50.5 7 L 54 7.5 L 50.5 8 L 50.5 7 Z " /><path fill="rgb(243,240,237)" stroke="rgb(243,240,237)" stroke-width="1" opacity="1" d="M 40.5 9 L 41 16.5 L 40 19.5 L 41 23.5 L 37 31 L 34 30.5 L 34 28.5 Q 33.3 24.8 35.5 24 L 37.5 25 Q 40.8 23.3 37 21.5 Q 36.3 18.9 39 20 L 39 17.5 L 40 15.5 L 39 11.5 L 40.5 9 Z M 35 27 Q 34 30 37 29 Q 38 26 35 27 Z " /><path fill="rgb(243,240,237)" stroke="rgb(243,240,237)" stroke-width="1" opacity="1" d="M 55.5 11 L 56 14 L 54 13.5 L 55.5 11 Z " /><path fill="rgb(243,240,237)" stroke="rgb(243,240,237)" stroke-width="1" opacity="1" d="M 34.5 12 L 36 14.5 L 34 15.5 L 34 13.5 L 34.5 12 Z " /><path fill="rgb(243,240,237)" stroke="rgb(243,240,237)" stroke-width="1" opacity="1" d="M 59.5 15 L 62 15.5 L 61.5 17 L 64.5 17 L 68 19 Q 67.9 23.9 71.5 26 L 76.5 25 L 76.5 26 L 74 26.5 L 76 27 Q 75 33.4 80.5 35 L 83 34 L 82 36.5 L 84 37 L 83.5 39 L 77 33.5 L 75 30.5 L 72.5 27 L 71.5 28 L 67 23.5 Q 67.8 21.3 65.5 22 L 58 16.5 L 59.5 15 Z " /><path fill="rgb(243,240,237)" stroke="rgb(243,240,237)" stroke-width="1" opacity="1" d="M 8 16 Q 11 14.8 10 18.5 L 8.5 21 L 8 16 Z " /><path fill="rgb(243,240,237)" stroke="rgb(243,240,237)" stroke-width="1" opacity="1" d="M 2.5 23 L 3 27 L 1 26.5 L 2.5 23 Z " /><path fill="rgb(243,240,237)" stroke="rgb(243,240,237)" stroke-width="1" opacity="1" d="M 16.5 24 L 17 31.5 L 16 31.5 L 16.5 24 Z " /><path fill="rgb(243,240,237)" stroke="rgb(243,240,237)" stroke-width="1" opacity="1" d="M 8.5 26 L 9 28 L 13 29.5 L 8 31 Q 9.7 35.1 5.5 34 L 4 31.5 Q 5.6 28.6 11 29.5 L 8 27.5 L 8.5 26 Z " /><path fill="rgb(243,240,237)" stroke="rgb(243,240,237)" stroke-width="1" opacity="1" d="M 24.5 31 L 28 32 Q 26.5 35.8 29.5 35 L 31.5 34 L 31.5 35 L 27 37.5 Q 27.8 39.8 25.5 39 L 27 36.5 L 25 33.5 L 23.5 34 Q 20.9 34.7 22 32 L 24.5 31 Z " /><path fill="rgb(243,240,237)" stroke="rgb(243,240,237)" stroke-width="1" opacity="1" d="M 17.5 37 L 20 37 L 20 41 L 21.5 41 L 24 39.5 Q 24.8 41.8 22.5 41 L 19 43 Q 20.1 45.7 17.5 45 L 13 48 L 11.5 51 L 9 49.5 L 11 48.5 L 10 46.5 L 12 43 L 18.5 43 L 19 41.5 L 16 40 L 17.5 37 Z " /><path fill="rgb(243,240,237)" stroke="rgb(243,240,237)" stroke-width="1" opacity="1" d="M 91 37 Q 93.7 35.9 93 38.5 L 91 39.5 L 91 37 Z " /><path fill="rgb(243,240,237)" stroke="rgb(243,240,237)" stroke-width="1" opacity="1" d="M 84.5 40 L 85 42 L 89 43.5 L 89 45.5 L 95 53.5 L 96 58.5 L 99 61.5 L 99.5 68 L 101 67.5 L 102 74.5 L 101 77.5 L 102 77.5 L 102.5 76 L 103 79.5 L 102 83.5 Q 104.5 85 103 90.5 L 99.5 97 L 99 95.5 Q 101.9 91.9 101 84.5 L 100 83.5 L 100 71.5 L 98 64.5 Q 93.3 59.7 92 51.5 L 88 46.5 L 87.5 43 Q 85.8 45.8 84 41.5 L 84.5 40 Z " /><path fill="rgb(243,240,237)" stroke="rgb(243,240,237)" stroke-width="1" opacity="1" d="M 3.5 48 L 6 49.5 L 6.5 51 L 8.5 51 Q 10.8 50.3 10 52.5 L 6 60 Q 2.7 58.7 4 63.5 L 0.5 69 L 0 67.5 Q 2.8 65.8 2 60.5 L 5 56 L 7 55.5 L 5 54.5 L 5.5 53 L 4 53 L 4 51 Q 1.3 52.1 2 49.5 L 3.5 48 Z " /><path fill="rgb(243,240,237)" stroke="rgb(243,240,237)" stroke-width="1" opacity="1" d="M 99.5 48 Q 102.5 48.5 102 52.5 L 99 50.5 L 99.5 48 Z " /><path fill="rgb(243,240,237)" stroke="rgb(243,240,237)" stroke-width="1" opacity="1" d="M 45.5 69 L 57.5 69 L 69 75.5 L 67.5 76 L 58.5 71 L 45.5 70 L 39.5 73 L 40.5 71 L 45.5 69 Z " /><path fill="rgb(243,240,237)" stroke="rgb(243,240,237)" stroke-width="1" opacity="1" d="M 37.5 72 L 38 74 Q 34.2 72.5 35 75.5 L 30.5 79 L 30 77.5 L 37.5 72 Z " /><path fill="rgb(243,240,237)" stroke="rgb(243,240,237)" stroke-width="1" opacity="1" d="M 70 77 Q 73 75.8 72 79.5 L 70 78.5 L 70 77 Z " /><path fill="rgb(243,240,237)" stroke="rgb(243,240,237)" stroke-width="1" opacity="1" d="M 73.5 80 L 75 82.5 L 73 81.5 L 73.5 80 Z " /><path fill="rgb(243,240,237)" stroke="rgb(243,240,237)" stroke-width="1" opacity="1" d="M 26.5 82 L 27 83.5 L 24.5 89 L 24 86.5 L 26.5 82 Z " /><path fill="rgb(243,240,237)" stroke="rgb(243,240,237)" stroke-width="1" opacity="1" d="M 75.5 84 L 80 95.5 L 80 127 Q 84.2 127.7 85.5 124 L 86 126 Q 83 125 84 128 L 79 128 L 78 124.5 L 78 109.5 L 79 106.5 L 78 104.5 L 79 99.5 Q 76.2 97.8 78 91.5 L 75.5 84 Z " /><path fill="rgb(243,240,237)" stroke="rgb(243,240,237)" stroke-width="1" opacity="1" d="M 23.5 90 L 24 93.5 L 23 94.5 L 22.5 123 Q 20.1 118.9 21 111.5 L 22 107.5 L 21 103.5 L 22 102.5 L 22 92.5 L 23.5 90 Z " /><path fill="rgb(243,240,237)" stroke="rgb(243,240,237)" stroke-width="1" opacity="1" d="M 99.5 98 L 100 102.5 L 97 109 L 95 108.5 L 97 103 Q 99.7 104.1 99 101.5 L 98 99.5 L 99.5 98 Z " /><path fill="rgb(243,240,237)" stroke="rgb(243,240,237)" stroke-width="1" opacity="1" d="M 0.5 99 L 2 106 L 0 105.5 L 0 103.5 L 0.5 99 Z " /><path fill="rgb(243,240,237)" stroke="rgb(243,240,237)" stroke-width="1" opacity="1" d="M 102.5 107 L 103 112 Q 99.7 113.3 101 108.5 L 102.5 107 Z " /><path fill="rgb(243,240,237)" stroke="rgb(243,240,237)" stroke-width="1" opacity="1" d="M 3.5 108 L 3 109.5 L 3.5 111 Q 4.8 108.8 6 111.5 L 9 117.5 L 7.5 118 L 5.5 117 Q 1.2 118.7 4 120.5 Q 3.1 123.9 8.5 122 L 8 120.5 Q 7.2 117.5 11 119 L 11 124 L 12.5 124 L 12.5 122 L 17 125.5 L 16.5 127 L 21 127 Q 20 124 23 125 L 22 129 Q 17 129.8 15 126.5 Q 15.6 123.8 9.5 125 Q 6.3 126.8 10 128.5 L 8.5 132 L 5 130.5 L 6 124.5 L 3 123.5 L 3 121.5 L 2 119.5 L 2.5 117 L 4 117.5 L 3 115.5 L 5 111.5 L 2 110.5 L 3.5 108 Z " /><path fill="rgb(243,240,237)" stroke="rgb(243,240,237)" stroke-width="1" opacity="1" d="M 94.5 111 L 95 112.5 L 92.5 118 L 91 117.5 L 87.5 126 L 87 123.5 L 90 116.5 L 94.5 111 Z " /><path fill="rgb(243,240,237)" stroke="rgb(243,240,237)" stroke-width="1" opacity="1" d="M 97.5 118 Q 102.3 116.7 101 120 L 95 119.5 L 97.5 118 Z " /><path fill="rgb(243,240,237)" stroke="rgb(243,240,237)" stroke-width="1" opacity="1" d="M 94 126 Q 97 125 96 128 Q 93 129 94 126 Z " /><path fill="rgb(243,240,237)" stroke="rgb(243,240,237)" stroke-width="1" opacity="1" d="M 80 132 L 84 132.5 L 82.5 136 L 80 135 L 80 132 Z " /><path fill="rgb(243,240,237)" stroke="rgb(243,240,237)" stroke-width="1" opacity="1" d="M 17.5 133 L 19 136.5 L 17.5 139 L 16 136.5 L 17.5 133 Z " /><path fill="rgb(243,240,237)" stroke="rgb(243,240,237)" stroke-width="1" opacity="1" d="M 92.5 135 L 94 137.5 L 92 136.5 L 92.5 135 Z " /><path fill="rgb(243,240,237)" stroke="rgb(243,240,237)" stroke-width="1" opacity="1" d="M 0.5 138 L 8 138.5 L 0.5 139 L 0.5 138 Z " /><path fill="rgb(243,240,237)" stroke="rgb(243,240,237)" stroke-width="1" opacity="1" d="M 91.5 139 L 95.5 141 Q 97 137.5 98.5 140 Q 101.1 139.2 100 142.5 L 100 144.5 L 100 153.5 L 102.5 154 L 102.5 155 L 100 155.5 L 103 156 Q 104.8 160.5 99.5 159 L 99.5 161 Q 96.9 160.2 98 163.5 L 96 162.5 L 97 159.5 L 95.5 151 L 94.5 157 L 94 151.5 Q 97.3 150.2 96 144.5 L 93 145.5 L 92.5 144 L 90.5 144 Q 87.9 144.8 89 141.5 L 88.5 140 Q 90 142.5 91.5 139 Z " /><path fill="rgb(243,240,237)" stroke="rgb(243,240,237)" stroke-width="1" opacity="1" d="M 0.5 140 L 8 140.5 L 0.5 141 L 0.5 140 Z " /><path fill="rgb(243,240,237)" stroke="rgb(243,240,237)" stroke-width="1" opacity="1" d="M 9 140 L 11 140.5 L 10 143.5 Q 11.5 147.9 8.5 147 L 7 144 Q 10.7 145.2 9 140 Z " /><path fill="rgb(243,240,237)" stroke="rgb(243,240,237)" stroke-width="1" opacity="1" d="M 13 140 Q 16.3 138.7 15 143.5 L 13.5 143 L 12 142.5 L 13 140 Z " /><path fill="rgb(243,240,237)" stroke="rgb(243,240,237)" stroke-width="1" opacity="1" d="M 78.5 140 L 80 143.5 L 78 142.5 L 78.5 140 Z " /><path fill="rgb(243,240,237)" stroke="rgb(243,240,237)" stroke-width="1" opacity="1" d="M 22.5 141 L 23 143.5 L 21.5 146 L 20.5 144 Q 23.4 144.7 22.5 141 Z " /><path fill="rgb(243,240,237)" stroke="rgb(243,240,237)" stroke-width="1" opacity="1" d="M 0 144 Q 5.2 141.9 4 146.5 Q 2 150 0 145.5 L 0 144 Z " /><path fill="rgb(243,240,237)" stroke="rgb(243,240,237)" stroke-width="1" opacity="1" d="M 2 150 Q 5.7 148.5 5 151.5 L 7 155.5 L 5 160 L 8 161.5 L 7 164.5 L 8 165.5 L 8.5 177 L 10 176.5 L 8 180.5 L 8.5 182 L 10 181.5 L 10 183.5 L 11 185.5 L 8 186 Q 9.1 188.7 6.5 188 L 5 192 L 9.5 195 L 11 191 Q 15.1 192.3 14 189 L 12 188.5 L 14.5 188 L 17 193.5 L 17 195.5 Q 16.1 198.5 20.5 197 L 20.5 198 L 18 198.5 L 24 199 L 24 204.5 L 25.5 205 L 28.5 203 L 32 205.5 L 20 209 L 21.5 212 Q 25.5 211.5 26 214.5 Q 24.9 217.8 27.5 217 L 27 215.5 L 27 214 L 31 214 L 30 216.5 L 30.5 218 L 26.5 220 L 26.5 218 L 19 221.5 L 22 225.5 L 20 226.5 Q 21.5 222.1 18.5 223 L 17 223.5 L 16.5 220 L 14 221.5 L 16 222.5 L 10.5 224 L 9 223.5 L 8 230.5 L 10 234.5 L 8 235.5 L 10 236.5 L 8 237 L 8 240 L 3 240 L 5 230.5 L 3 226.5 L 3 207.5 L 4 206.5 L 4 196.5 L 3 193 L 0 192.5 L 0 166.5 L 3 161.5 L 0 157.5 L 0 154.5 Q 2.8 153.4 2 150 Z M 3 170 L 2 173 Q 1 178 5 179 L 7 174 L 6 172 L 3 170 Z M 14 198 L 12 202 L 16 203 L 17 200 Q 18 197 14 198 Z M 12 204 L 10 207 L 12 207 L 12 204 Z M 18 205 L 16 207 Q 15 210 19 208 L 18 205 Z M 8 207 L 8 217 L 10 219 L 10 210 L 10 208 L 8 207 Z M 16 209 L 15 213 L 16 213 L 16 209 Z M 8 220 L 8 223 L 10 222 L 8 220 Z " /><path fill="rgb(243,240,237)" stroke="rgb(243,240,237)" stroke-width="1" opacity="1" d="M 93.5 160 L 95 161.5 L 94.5 164 Q 91 164.8 93.5 160 Z " /><path fill="rgb(243,240,237)" stroke="rgb(243,240,237)" stroke-width="1" opacity="1" d="M 97 168 L 100 168.5 L 97 170 L 97 168 Z " /><path fill="rgb(243,240,237)" stroke="rgb(243,240,237)" stroke-width="1" opacity="1" d="M 95.5 176 Q 98.5 177.5 97 183.5 L 94 183.5 Q 95 179.8 92 181 L 93 185 Q 89.7 186.3 91 181.5 L 95.5 176 Z " /><path fill="rgb(243,240,237)" stroke="rgb(243,240,237)" stroke-width="1" opacity="1" d="M 101.5 187 L 102.5 189 Q 99.7 189.7 101.5 187 Z " /><path fill="rgb(243,240,237)" stroke="rgb(243,240,237)" stroke-width="1" opacity="1" d="M 88.5 190 L 89.5 192 Q 86.9 191.2 88 194.5 Q 91 196.8 90 202 L 95 202.5 Q 92 203.8 93 208 L 91 208.5 L 92 209.5 L 92 219 L 90 218.5 L 90 208.5 Q 87.5 207 89 201.5 L 87 199.5 L 88 197.5 L 86 198.5 Q 86.7 201.1 84 200 L 85 193 Q 87.7 194.1 87 191.5 L 88.5 190 Z M 85 195 L 85 197 L 88 196 L 85 195 Z " /><path fill="rgb(243,240,237)" stroke="rgb(243,240,237)" stroke-width="1" opacity="1" d="M 97 190 Q 101.5 188.3 100 193.5 L 99 193.5 L 98.5 191 L 97 191.5 L 97 190 Z " /><path fill="rgb(243,240,237)" stroke="rgb(243,240,237)" stroke-width="1" opacity="1" d="M 94 191 Q 97.3 189.9 96 194 Q 92.7 195.1 94 191 Z " /><path fill="rgb(243,240,237)" stroke="rgb(243,240,237)" stroke-width="1" opacity="1" d="M 82.5 196 L 83 200 Q 80 201.3 81 197.5 L 82.5 196 Z " /><path fill="rgb(243,240,237)" stroke="rgb(243,240,237)" stroke-width="1" opacity="1" d="M 79.5 199 L 80 200.5 L 79.5 203 L 76 204.5 L 76.5 206 L 74.5 205 L 72.5 208 Q 69.5 208.9 71 204.5 L 72.5 205 Q 75.1 205.7 74 203 L 78 203 L 78 201.5 L 79.5 199 Z " /><path fill="rgb(243,240,237)" stroke="rgb(243,240,237)" stroke-width="1" opacity="1" d="M 34.5 206 L 37.5 207 L 39.5 206 L 42 208.5 L 42 219.5 L 41 219.5 L 40 212 L 35.5 209 L 33 209 L 34.5 206 Z " /><path fill="rgb(243,240,237)" stroke="rgb(243,240,237)" stroke-width="1" opacity="1" d="M 68.5 206 L 69 208.5 L 68 211 Q 63.5 212.5 65 208 L 68.5 206 Z " /><path fill="rgb(243,240,237)" stroke="rgb(243,240,237)" stroke-width="1" opacity="1" d="M 76.5 210 L 80 210.5 L 76.5 211 L 76.5 210 Z " /><path fill="rgb(243,240,237)" stroke="rgb(243,240,237)" stroke-width="1" opacity="1" d="M 34.5 216 L 36 216 L 36 220 L 32 218.5 Q 31.3 216.3 33.5 217 L 34.5 216 Z " /><path fill="rgb(243,240,237)" stroke="rgb(243,240,237)" stroke-width="1" opacity="1" d="M 75.5 216 L 81 216.5 L 78 218.5 L 77.5 220 L 75.5 217 L 73.5 218 L 73.5 217 L 75.5 216 Z " /><path fill="rgb(243,240,237)" stroke="rgb(243,240,237)" stroke-width="1" opacity="1" d="M 90.5 223 Q 93.5 222.2 92 226 Q 89.3 224.9 90 227.5 L 88 228.5 Q 86.1 223.1 89.5 224 L 90.5 223 Z " /><path fill="rgb(243,240,237)" stroke="rgb(243,240,237)" stroke-width="1" opacity="1" d="M 15.5 229 L 17 231.5 L 17 233.5 L 17 235 L 12 235 L 15.5 229 Z " /><path fill="rgb(243,240,237)" stroke="rgb(243,240,237)" stroke-width="1" opacity="1" d="M 22.5 236 L 23 239.5 L 21 238.5 L 22.5 236 Z " /><path fill="rgb(243,240,237)" stroke="rgb(243,240,237)" stroke-width="1" opacity="1" d="M 32 236 L 54.5 236 L 55.5 237 L 64 237.5 L 54 238.5 L 57 239.5 L 53 240.5 L 59 241 L 58.5 243 L 49.5 243 L 47.5 243 L 44 242.5 L 48 242 L 47 238 L 32.5 238 L 32 236 Z " /><path fill="rgb(243,240,237)" stroke="rgb(243,240,237)" stroke-width="1" opacity="1" d="M 77.5 236 L 79 236.5 L 78.5 238 Q 81.9 237.1 80 242.5 L 78 248 L 75.5 247 L 73.5 248 L 73.5 247 L 75 246.5 Q 73.6 242.4 68 242.5 L 68 240.5 L 67 237.5 L 71.5 237 L 73.5 238 L 75 237.5 L 74 240 Q 77 241.3 76 237.5 L 77.5 236 Z " /><path fill="rgb(243,240,237)" stroke="rgb(243,240,237)" stroke-width="1" opacity="1" d="M 28 237 Q 30.7 235.9 30 238.5 L 30.5 240 Q 26.3 241.1 28 237 Z " /><path fill="rgb(243,240,237)" stroke="rgb(243,240,237)" stroke-width="1" opacity="1" d="M 101.5 241 Q 104.1 240.3 103 243 L 100 242.5 L 101.5 241 Z " /><path fill="rgb(243,240,237)" stroke="rgb(243,240,237)" stroke-width="1" opacity="1" d="M 0 245 Q 2.1 246.6 7.5 246 L 9 247.5 L 0 248 L 0 245 Z " /><path fill="rgb(243,240,237)" stroke="rgb(243,240,237)" stroke-width="1" opacity="1" d="M 61 245 Q 64.3 243.9 63 248 Q 59.7 249.1 61 245 Z " /><path fill="rgb(243,240,237)" stroke="rgb(243,240,237)" stroke-width="1" opacity="1" d="M 82.5 245 L 85.5 247 L 86 245 Q 91.6 243.1 90 248 L 82 248 L 82.5 245 Z " /><path fill="rgb(243,240,237)" stroke="rgb(243,240,237)" stroke-width="1" opacity="1" d="M 93.5 245 L 94 247.5 L 93 247.5 L 93.5 245 Z " /><path fill="rgb(243,240,237)" stroke="rgb(243,240,237)" stroke-width="1" opacity="1" d="M 43 246 L 45 246.5 L 43 247.5 L 43 246 Z " /><path fill="rgb(243,240,237)" stroke="rgb(243,240,237)" stroke-width="1" opacity="1" d="M 64 246 L 68 246.5 L 64 248 L 64 246 Z " /><path fill="rgb(243,240,237)" stroke="rgb(243,240,237)" stroke-width="1" opacity="1" d="M 96.5 246 Q 101.8 244.8 103 247.5 L 101.5 248 L 96.5 247 L 96.5 246 Z " /><path fill="rgb(228,244,253)" stroke="rgb(228,244,253)" stroke-width="1" opacity="1" d="M 46.5 71 Q 65.9 70.6 73 82.5 L 77 93.5 L 77 125.5 Q 79.3 126.7 78 131.5 L 77 132.5 L 76.5 155 L 76 95.5 L 74 87.5 L 68.5 80 L 65.5 78 Q 59.3 71.2 44.5 73 L 35.5 78 L 30 83.5 L 26 92.5 L 24.5 109 L 24 93.5 Q 26.8 91.8 26 86.5 L 33.5 78 L 36 76.5 Q 35.3 74.3 37.5 75 L 46.5 71 Z " /><path fill="rgb(228,244,253)" stroke="rgb(228,244,253)" stroke-width="1" opacity="1" d="M 0.5 112 L 1 114.5 L 0 114.5 L 0.5 112 Z " /><path fill="rgb(228,244,253)" stroke="rgb(228,244,253)" stroke-width="1" opacity="1" d="M 24.5 115 L 25 126.5 L 24 126.5 L 24.5 115 Z " /><path fill="rgb(228,244,253)" stroke="rgb(228,244,253)" stroke-width="1" opacity="1" d="M 24.5 144 L 25 163.5 L 24 166.5 L 26 171 Q 22.7 169.7 24 174.5 L 25 176.5 L 25 178.5 Q 24.3 181.1 27 180 L 26 176.5 L 26 174.5 L 25 172.5 L 27 172 L 29 177.5 L 28.5 180 L 26 181.5 L 29 183.5 L 27.5 184 L 23 176.5 Q 25.5 175 22 173.5 Q 19.3 165.2 21 152.5 L 21.5 150 Q 22.8 152.3 24 149.5 L 24.5 144 Z M 23 168 L 22 170 L 24 171 L 23 168 Z " /><path fill="rgb(228,244,253)" stroke="rgb(228,244,253)" stroke-width="1" opacity="1" d="M 13.5 146 Q 20.5 144.5 20 147.5 L 17.5 148 L 11 147.5 L 13.5 146 Z " /><path fill="rgb(228,244,253)" stroke="rgb(228,244,253)" stroke-width="1" opacity="1" d="M 82.5 146 L 85 146.5 L 82.5 147 L 82.5 146 Z " /><path fill="rgb(228,244,253)" stroke="rgb(228,244,253)" stroke-width="1" opacity="1" d="M 87.5 146 L 89.5 146 L 92 147.5 L 93 151.5 L 92 152.5 L 92 175.5 L 88.5 182 L 88 180.5 L 91 172.5 L 91 148.5 Q 89.8 145.8 88.5 148 L 87.5 146 Z " /><path fill="rgb(228,244,253)" stroke="rgb(228,244,253)" stroke-width="1" opacity="1" d="M 79.5 149 L 80 155.5 L 79 155.5 L 79.5 149 Z " /><path fill="rgb(228,244,253)" stroke="rgb(228,244,253)" stroke-width="1" opacity="1" d="M 9 152 L 11 152.5 L 11 166.5 L 10 166.5 L 8 158.5 L 9 152 Z " /><path fill="rgb(228,244,253)" stroke="rgb(228,244,253)" stroke-width="1" opacity="1" d="M 76.5 158 L 77 165.5 L 76 165.5 L 76.5 158 Z " /><path fill="rgb(228,244,253)" stroke="rgb(228,244,253)" stroke-width="1" opacity="1" d="M 10.5 168 L 11 175.5 L 16 186.5 L 14.5 186 Q 11.9 186.8 13 183.5 L 10 175.5 L 10.5 168 Z " /><path fill="rgb(228,244,253)" stroke="rgb(228,244,253)" stroke-width="1" opacity="1" d="M 78 171 Q 80.7 169.9 80 172.5 L 78 173.5 L 78 171 Z " /><path fill="rgb(228,244,253)" stroke="rgb(228,244,253)" stroke-width="1" opacity="1" d="M 75.5 174 L 79 175 L 76 183 L 73 183.5 L 74 184.5 L 68.5 190 L 62.5 193 L 60 192.5 L 59 190.5 L 61.5 189 L 62 191 L 65 190.5 L 63.5 188 L 65 188.5 L 67.5 185 Q 69.5 189 71.5 185 L 73 184.5 L 70 183 L 69.5 185 L 69 183.5 Q 70.8 179.2 72.5 182 Q 75.1 182.7 74 180 L 72 179.5 L 73.5 179 L 75.5 180 L 74.5 178 L 73 177.5 L 76 176.5 L 75.5 174 Z M 68 186 L 67 188 L 69 189 L 68 186 Z " /><path fill="rgb(228,244,253)" stroke="rgb(228,244,253)" stroke-width="1" opacity="1" d="M 31.5 182 L 32 184.5 L 32 186.5 L 31.5 189 L 28.5 185 Q 29.8 187.3 31 184.5 L 31.5 182 Z " /><path fill="rgb(228,244,253)" stroke="rgb(228,244,253)" stroke-width="1" opacity="1" d="M 16.5 188 L 18.5 191 L 16.5 188 Z " /><path fill="rgb(228,244,253)" stroke="rgb(228,244,253)" stroke-width="1" opacity="1" d="M 34.5 188 L 36.5 189 L 38.5 189 L 43 190 L 43.5 193 L 44 191 L 46 191.5 L 45 194 L 50 194 Q 48.9 191.3 51.5 192 Q 53.8 194.8 59 194.5 L 44.5 195 L 33 189.5 L 34.5 188 Z " /><path fill="rgb(228,244,253)" stroke="rgb(228,244,253)" stroke-width="1" opacity="1" d="M 84.5 189 L 85 190.5 L 80 194.5 L 80 196 L 78 196 Q 79.1 198.7 76.5 198 Q 76 201.5 71.5 201 L 72.5 199 L 75.5 198 L 84.5 189 Z " /><path fill="rgb(228,244,253)" stroke="rgb(228,244,253)" stroke-width="1" opacity="1" d="M 20.5 194 L 24 195.5 L 22.5 197 L 20.5 194 Z " /><path fill="rgb(228,244,253)" stroke="rgb(228,244,253)" stroke-width="1" opacity="1" d="M 25.5 197 L 26.5 199 Q 23.7 199.7 25.5 197 Z " /><path fill="rgb(228,244,253)" stroke="rgb(228,244,253)" stroke-width="1" opacity="1" d="M 28.5 199 L 36 203.5 L 33.5 204 L 31.5 202 L 29.5 201 L 28 201.5 L 28.5 199 Z " /><path fill="rgb(228,244,253)" stroke="rgb(228,244,253)" stroke-width="1" opacity="1" d="M 69.5 201 L 67.5 204 L 65 203.5 L 69.5 201 Z " /><path fill="rgb(228,244,253)" stroke="rgb(228,244,253)" stroke-width="1" opacity="1" d="M 42 205 L 45 206.5 L 44.5 215 Q 45 207.8 42 205 Z " /><path fill="rgb(228,244,253)" stroke="rgb(228,244,253)" stroke-width="1" opacity="1" d="M 56 205 Q 59.8 203.5 59 206.5 L 58 207.5 L 57 218.5 L 58 223 L 74 223.5 L 56 224 L 56 205 Z " /><path fill="rgb(228,244,253)" stroke="rgb(228,244,253)" stroke-width="1" opacity="1" d="M 44.5 222 L 45 224 L 34 223.5 L 43.5 223 L 44.5 222 Z " /><path fill="rgb(228,244,253)" stroke="rgb(228,244,253)" stroke-width="1" opacity="1" d="M 25.5 223 L 31 223.5 L 25.5 224 L 25.5 223 Z " /><path fill="rgb(228,244,253)" stroke="rgb(228,244,253)" stroke-width="1" opacity="1" d="M 78.5 226 Q 81.3 227.3 79 228.5 L 80 233 L 78 232.5 L 78.5 226 Z " /><path fill="rgb(228,244,253)" stroke="rgb(228,244,253)" stroke-width="1" opacity="1" d="M 22.5 227 L 23 231.5 L 22 231.5 L 22.5 227 Z " /><path fill="rgb(228,244,253)" stroke="rgb(228,244,253)" stroke-width="1" opacity="1" d="M 25 234 L 77 234.5 Q 75.8 237.3 70.5 236 L 67.5 235 L 65.5 236 L 64.5 235 L 52.5 235 L 49.5 236 L 48.5 235 L 27.5 235 L 25 236 L 25 234 Z " /><path fill="rgb(224,225,226)" stroke="rgb(224,225,226)" stroke-width="1" opacity="1" d="M 40.5 7 L 41.5 9 Q 38.7 9.7 40.5 7 Z " /><path fill="rgb(224,225,226)" stroke="rgb(224,225,226)" stroke-width="1" opacity="1" d="M 76.5 26 L 78 26 L 78 31 L 79.5 31 L 79.5 32 Q 76.2 33.1 77 30.5 L 77 28.5 L 76.5 26 Z " /><path fill="rgb(224,225,226)" stroke="rgb(224,225,226)" stroke-width="1" opacity="1" d="M 16.5 40 L 18.5 43 L 16 42 L 16.5 40 Z " /><path fill="rgb(224,225,226)" stroke="rgb(224,225,226)" stroke-width="1" opacity="1" d="M 1.5 63 L 2 64.5 L 0 65.5 L 1.5 63 Z " /><path fill="rgb(224,225,226)" stroke="rgb(224,225,226)" stroke-width="1" opacity="1" d="M 99.5 65 L 100 67.5 L 99 67.5 L 99.5 65 Z " /><path fill="rgb(224,225,226)" stroke="rgb(224,225,226)" stroke-width="1" opacity="1" d="M 40.5 72 L 43 72.5 L 40.5 73 L 40.5 72 Z " /><path fill="rgb(224,225,226)" stroke="rgb(224,225,226)" stroke-width="1" opacity="1" d="M 44.5 73 L 47 73.5 L 44.5 74 L 44.5 73 Z " /><path fill="rgb(224,225,226)" stroke="rgb(224,225,226)" stroke-width="1" opacity="1" d="M 48.5 73 L 56 73.5 L 48.5 74 L 48.5 73 Z " /><path fill="rgb(224,225,226)" stroke="rgb(224,225,226)" stroke-width="1" opacity="1" d="M 68.5 76 L 69.5 78 Q 66.7 78.7 68.5 76 Z " /><path fill="rgb(224,225,226)" stroke="rgb(224,225,226)" stroke-width="1" opacity="1" d="M 31.5 78 L 30 80.5 L 28.5 83 L 27 82.5 L 29 82 L 31.5 78 Z " /><path fill="rgb(224,225,226)" stroke="rgb(224,225,226)" stroke-width="1" opacity="1" d="M 35.5 78 L 34.5 80 L 35.5 78 Z " /><path fill="rgb(224,225,226)" stroke="rgb(224,225,226)" stroke-width="1" opacity="1" d="M 70.5 79 L 71.5 81 L 70.5 79 Z " /><path fill="rgb(224,225,226)" stroke="rgb(224,225,226)" stroke-width="1" opacity="1" d="M 68.5 80 L 70.5 83 L 68.5 80 Z " /><path fill="rgb(224,225,226)" stroke="rgb(224,225,226)" stroke-width="1" opacity="1" d="M 31.5 82 L 30.5 84 L 31.5 82 Z " /><path fill="rgb(224,225,226)" stroke="rgb(224,225,226)" stroke-width="1" opacity="1" d="M 74.5 83 L 76 87.5 L 75 87.5 L 74.5 83 Z " /><path fill="rgb(224,225,226)" stroke="rgb(224,225,226)" stroke-width="1" opacity="1" d="M 72.5 86 L 73.5 88 L 72.5 86 Z " /><path fill="rgb(224,225,226)" stroke="rgb(224,225,226)" stroke-width="1" opacity="1" d="M 101 93 Q 104 92 103 95 Q 100 96 101 93 Z " /><path fill="rgb(224,225,226)" stroke="rgb(224,225,226)" stroke-width="1" opacity="1" d="M 99.5 97 L 98.5 99 L 99.5 97 Z " /><path fill="rgb(224,225,226)" stroke="rgb(224,225,226)" stroke-width="1" opacity="1" d="M 25.5 99 L 26 153.5 L 25 153.5 L 25.5 99 Z " /><path fill="rgb(224,225,226)" stroke="rgb(224,225,226)" stroke-width="1" opacity="1" d="M 2.5 105 L 4 107.5 L 3.5 109 L 5 109.5 L 5 111.5 L 4.5 113 Q 0.8 110.3 2.5 105 Z " /><path fill="rgb(224,225,226)" stroke="rgb(224,225,226)" stroke-width="1" opacity="1" d="M 21.5 107 L 22 110.5 L 21 110.5 L 21.5 107 Z " /><path fill="rgb(224,225,226)" stroke="rgb(224,225,226)" stroke-width="1" opacity="1" d="M 95.5 109 L 96 111 L 94 110.5 L 95.5 109 Z " /><path fill="rgb(224,225,226)" stroke="rgb(224,225,226)" stroke-width="1" opacity="1" d="M 94.5 113 L 96 115.5 L 94 114.5 L 94.5 113 Z " /><path fill="rgb(224,225,226)" stroke="rgb(224,225,226)" stroke-width="1" opacity="1" d="M 21.5 119 L 22 121.5 L 21 121.5 L 21.5 119 Z " /><path fill="rgb(224,225,226)" stroke="rgb(224,225,226)" stroke-width="1" opacity="1" d="M 22.5 123 L 23 125 L 21 124.5 L 22.5 123 Z " /><path fill="rgb(224,225,226)" stroke="rgb(224,225,226)" stroke-width="1" opacity="1" d="M 81.5 147 L 88 147.5 L 81 148 L 80.5 170 L 80 148.5 L 81.5 147 Z " /><path fill="rgb(224,225,226)" stroke="rgb(224,225,226)" stroke-width="1" opacity="1" d="M 89.5 147 L 91 148.5 L 91 172.5 L 90 172.5 L 90 148.5 L 89.5 147 Z " /><path fill="rgb(224,225,226)" stroke="rgb(224,225,226)" stroke-width="1" opacity="1" d="M 10.5 148 L 11 151.5 L 10 151.5 L 10.5 148 Z " /><path fill="rgb(224,225,226)" stroke="rgb(224,225,226)" stroke-width="1" opacity="1" d="M 20.5 148 L 21.5 150 L 20.5 148 Z " /><path fill="rgb(224,225,226)" stroke="rgb(224,225,226)" stroke-width="1" opacity="1" d="M 25.5 155 L 26 157.5 L 25 157.5 L 25.5 155 Z " /><path fill="rgb(224,225,226)" stroke="rgb(224,225,226)" stroke-width="1" opacity="1" d="M 25.5 160 L 26 168.5 L 25 168.5 L 25.5 160 Z " /><path fill="rgb(224,225,226)" stroke="rgb(224,225,226)" stroke-width="1" opacity="1" d="M 75.5 167 L 76 169.5 L 75 169.5 L 75.5 167 Z " /><path fill="rgb(224,225,226)" stroke="rgb(224,225,226)" stroke-width="1" opacity="1" d="M 21.5 170 L 22 172.5 L 21 172.5 L 21.5 170 Z " /><path fill="rgb(224,225,226)" stroke="rgb(224,225,226)" stroke-width="1" opacity="1" d="M 94.5 173 L 95 174.5 L 93.5 177 L 93 175.5 L 94.5 173 Z " /><path fill="rgb(224,225,226)" stroke="rgb(224,225,226)" stroke-width="1" opacity="1" d="M 29.5 179 L 31 181.5 L 30 181.5 L 29.5 180 L 28 180.5 L 29.5 179 Z " /><path fill="rgb(224,225,226)" stroke="rgb(224,225,226)" stroke-width="1" opacity="1" d="M 71.5 180 L 70.5 182 L 71.5 180 Z " /><path fill="rgb(224,225,226)" stroke="rgb(224,225,226)" stroke-width="1" opacity="1" d="M 25.5 182 L 27.5 185 L 25.5 182 Z " /><path fill="rgb(224,225,226)" stroke="rgb(224,225,226)" stroke-width="1" opacity="1" d="M 32.5 183 L 36 186.5 L 34.5 188 L 35 186.5 L 32.5 183 Z " /><path fill="rgb(224,225,226)" stroke="rgb(224,225,226)" stroke-width="1" opacity="1" d="M 65.5 186 L 64.5 188 L 65.5 186 Z " /><path fill="rgb(224,225,226)" stroke="rgb(224,225,226)" stroke-width="1" opacity="1" d="M 72.5 186 L 70.5 189 L 72.5 186 Z " /><path fill="rgb(224,225,226)" stroke="rgb(224,225,226)" stroke-width="1" opacity="1" d="M 85.5 186 L 85 187.5 L 82.5 191 L 84 188.5 L 85.5 186 Z " /><path fill="rgb(224,225,226)" stroke="rgb(224,225,226)" stroke-width="1" opacity="1" d="M 87.5 186 L 88 187.5 L 86 188.5 L 87.5 186 Z " /><path fill="rgb(224,225,226)" stroke="rgb(224,225,226)" stroke-width="1" opacity="1" d="M 16.5 187 L 18.5 190 L 16.5 187 Z " /><path fill="rgb(224,225,226)" stroke="rgb(224,225,226)" stroke-width="1" opacity="1" d="M 37.5 187 L 42 189.5 L 40.5 190 L 37.5 187 Z " /><path fill="rgb(224,225,226)" stroke="rgb(224,225,226)" stroke-width="1" opacity="1" d="M 67.5 190 L 66.5 192 L 67.5 190 Z " /><path fill="rgb(224,225,226)" stroke="rgb(224,225,226)" stroke-width="1" opacity="1" d="M 19.5 191 L 22.5 195 L 19.5 191 Z " /><path fill="rgb(224,225,226)" stroke="rgb(224,225,226)" stroke-width="1" opacity="1" d="M 35.5 191 L 38 192.5 L 36.5 192 L 35.5 191 Z " /><path fill="rgb(224,225,226)" stroke="rgb(224,225,226)" stroke-width="1" opacity="1" d="M 46.5 191 L 55 191.5 L 46.5 192 L 46.5 191 Z " /><path fill="rgb(224,225,226)" stroke="rgb(224,225,226)" stroke-width="1" opacity="1" d="M 60.5 193 L 62 193.5 L 59.5 195 L 60.5 193 Z " /><path fill="rgb(224,225,226)" stroke="rgb(224,225,226)" stroke-width="1" opacity="1" d="M 49.5 195 L 54 195.5 L 49.5 196 L 49.5 195 Z " /><path fill="rgb(224,225,226)" stroke="rgb(224,225,226)" stroke-width="1" opacity="1" d="M 77.5 195 L 75.5 198 L 77.5 195 Z " /><path fill="rgb(224,225,226)" stroke="rgb(224,225,226)" stroke-width="1" opacity="1" d="M 29.5 199 L 30.5 201 L 29.5 199 Z " /><path fill="rgb(224,225,226)" stroke="rgb(224,225,226)" stroke-width="1" opacity="1" d="M 68.5 201 L 69.5 203 L 68.5 201 Z " /><path fill="rgb(224,225,226)" stroke="rgb(224,225,226)" stroke-width="1" opacity="1" d="M 35.5 202 L 38 203.5 L 36.5 204 L 35.5 202 Z " /><path fill="rgb(224,225,226)" stroke="rgb(224,225,226)" stroke-width="1" opacity="1" d="M 63.5 203 L 65 203.5 L 60.5 205 L 60.5 204 L 63.5 203 Z " /><path fill="rgb(224,225,226)" stroke="rgb(224,225,226)" stroke-width="1" opacity="1" d="M 44.5 205 L 46 206.5 L 46 223.5 L 45 223.5 L 45 206.5 L 44.5 205 Z " /><path fill="rgb(224,225,226)" stroke="rgb(224,225,226)" stroke-width="1" opacity="1" d="M 76.5 223 L 78.5 226 L 76.5 223 Z " /><path fill="rgb(224,225,226)" stroke="rgb(224,225,226)" stroke-width="1" opacity="1" d="M 23 224 L 25 224.5 L 24 225.5 L 23.5 235 L 23 224 Z " /></svg>